<svg xmlns="http://www.w3.org/2000/svg" width="157" height="22" viewBox="0 0 157 22">
    <g fill="none">
        <g>
            <path fill="#0526A0" d="M8.58 20.36v-1.32c-1.17-.12-1.95-.36-1.95-1.11v-6.45c.18-.9.51-3.03 2.34-3.03.9 0 1.38.9 2.7.9.81 0 2.04-.6 2.04-2.07 0-1.35-1.11-2.25-2.58-2.25-2.28 0-3.87 1.29-4.95 4.41l.45-3.18c.09-.87-.21-1.35-.96-1.35C4.8 4.91 3.3 6.47 0 7.19v1.32c1.11-.21 1.89.03 1.89 1.2v8.22c0 .75-.81.99-1.83 1.11v1.32c2.82-.06 5.7-.06 8.52 0zm14.37.3c2.64 0 4.23-.93 5.34-2.82.3-.48.06-.96-.42-.96h-.6c-.39 0-.54.15-.69.45-.57 1.05-1.32 1.95-3.12 1.95-2.94 0-3.48-3-3.51-5.67h6.99c1.53 0 2.1-.96 2.1-2.4 0-3.27-2.82-6.12-6.63-6.12-3.27 0-7.35 2.58-7.35 7.71 0 5.31 3.93 7.86 7.89 7.86zm1.56-8.7h-4.56c0-3.45.63-5.49 2.43-5.49 1.71 0 2.13 2.04 2.13 5.49zm14.28 8.7c2.52 0 4.29-1.08 5.43-2.76.33-.48.03-1.02-.51-1.02h-.81c-.24 0-.45.12-.57.45-.3.99-1.08 1.95-3.09 1.95-2.46 0-3.33-3.39-3.33-6.57 0-3.69.81-6.24 3-6.24 1.62 0 1.8 1.41 1.71 2.76-.09.96.57 1.77 1.95 1.77 1.59 0 2.13-.87 2.13-1.77-.03-2.43-2.76-4.14-6.24-4.14-3.57 0-7.62 2.49-7.62 7.62 0 5.49 4.05 7.95 7.95 7.95zm15.84-.3v-1.32c-1.17-.12-1.95-.36-1.95-1.11v-6.45c.18-.9.51-3.03 2.34-3.03.9 0 1.38.9 2.7.9.81 0 2.04-.6 2.04-2.07 0-1.35-1.11-2.25-2.58-2.25-2.28 0-3.87 1.29-4.95 4.41l.45-3.18c.09-.87-.21-1.35-.96-1.35-.87 0-2.37 1.56-5.67 2.28v1.32c1.11-.21 1.89.03 1.89 1.2v8.22c0 .75-.81.99-1.83 1.11v1.32c2.82-.06 5.7-.06 8.52 0zm18.48.48c.66 0 2.43-1.23 5.61-2.07v-1.26c-1.17.24-1.95-.03-1.95-1.17V6.05c0-.6-.48-.87-.9-.84l-5.55.39v1.32l.9-.03c.6-.03.84.27.84.9v7.29c-.33.81-1.68 3.69-3.42 3.69-1.56 0-1.53-1.71-1.53-3.78V6.05c0-.6-.45-.87-.93-.84l-5.52.39v1.32l.9-.03c.6-.03.84.27.84.9v7.68c0 4.29 2.49 5.37 4.77 5.37 2.94 0 4.53-2.52 5.19-3.69l-.3 2.25c-.12.9.27 1.44 1.05 1.44zm15.36-.48v-1.32c-1.14-.12-1.95-.36-1.95-1.11V10.4c0-1.92.18-3.09.18-4.41 0-.78-.27-1.08-.93-1.08-1.05 0-2.46 1.44-5.85 2.04V8.3c1.11-.12 1.89.09 1.89 1.26v8.37c0 .75-.81.99-1.86 1.11v1.32c2.82-.09 5.7-.09 8.52 0zm7.23.06c1.35 0 2.52-.39 3.27-.99v-1.5c-.48.45-1.17.78-1.8.78-1.18 0-1.366-1.023-1.38-2.379V6.8h2.7c.33 0 .45-.15.45-.48v-.51c0-.3-.12-.48-.45-.48h-2.7V1.25H93.6c-.27 2.4-1.23 4.08-3.63 4.08-.33 0-.45.18-.45.48v.51c0 .33.12.48.45.48h1.11v8.79c0 3.33 1.77 4.83 4.62 4.83zm13.14.24c2.64 0 4.23-.93 5.34-2.82.3-.48.06-.96-.42-.96h-.6c-.39 0-.54.15-.69.45-.57 1.05-1.32 1.95-3.12 1.95-2.94 0-3.48-3-3.51-5.67h6.99c1.53 0 2.1-.96 2.1-2.4 0-3.27-2.82-6.12-6.63-6.12-3.27 0-7.35 2.58-7.35 7.71 0 5.31 3.93 7.86 7.89 7.86zm1.56-8.7h-4.56c0-3.45.63-5.49 2.43-5.49 1.71 0 2.13 2.04 2.13 5.49zm14.28 8.7c2.52 0 4.29-1.08 5.43-2.76.33-.48.03-1.02-.51-1.02h-.81c-.24 0-.45.12-.57.45-.3.99-1.08 1.95-3.09 1.95-2.46 0-3.33-3.39-3.33-6.57 0-3.69.81-6.24 3-6.24 1.62 0 1.8 1.41 1.71 2.76-.09.96.57 1.77 1.95 1.77 1.59 0 2.13-.87 2.13-1.77-.03-2.43-2.76-4.14-6.24-4.14-3.57 0-7.62 2.49-7.62 7.62 0 5.49 4.05 7.95 7.95 7.95zm25.47-.3v-1.32c-1.14-.12-1.95-.36-1.95-1.11v-7.62c0-4.29-2.4-5.25-4.65-5.25-2.88 0-4.56 2.4-5.34 3.54l.33-2.19V1.73c0-.78-.21-1.17-.96-1.17-.87 0-2.34 1.56-5.64 2.25v1.35c1.11-.21 1.89 0 1.89 1.17v12.6c0 .75-.81.99-1.92 1.11v1.32c2.88-.09 5.7-.09 8.58 0v-1.32c-1.14-.09-1.95-.36-1.95-1.11v-7.47c.3-.78 1.77-3.3 3.48-3.3 1.44 0 1.5 1.38 1.5 3.39v7.38c0 .75-.84 1.02-1.92 1.11v1.32c2.85-.09 5.7-.09 8.55 0z" transform="translate(0 1)"/>
            <path fill="#FF6800" d="M154.2 20.66c1.23 0 2.25-1.02 2.25-2.28 0-1.23-1.02-2.25-2.25-2.25s-2.25 1.02-2.25 2.25c0 1.26 1.02 2.28 2.25 2.28z" transform="translate(0 1)"/>
        </g>
        <path fill="#0526A0" d="M84.09 4.86c1.35 0 2.4-1.11 2.4-2.46 0-1.35-1.05-2.4-2.4-2.4-1.35 0-2.43 1.05-2.43 2.4 0 1.35 1.08 2.46 2.43 2.46z"/>
    </g>
</svg>
