<svg xmlns="http://www.w3.org/2000/svg" width="455" height="340" viewBox="0 0 455 340">
    <defs>
        <linearGradient id="prefix__a" x1="0%" x2="100%" y1="50%" y2="50%">
            <stop offset="0%" stop-color="#0526A0"/>
            <stop offset="100%" stop-color="#E6E9F5"/>
        </linearGradient>
        <linearGradient id="prefix__b" x1="0%" x2="100%" y1="50%" y2="50%">
            <stop offset="0%" stop-color="#0526A0"/>
            <stop offset="100%" stop-color="#E6E9F5"/>
        </linearGradient>
    </defs>
    <g fill="none" fill-rule="evenodd">
        <path fill="#0526A0" d="M0 298.704L454.945 298.704 454.945 298.476 0 298.476zM39.908.228c-2.739 0-4.967 2.231-4.967 4.975V252.62c0 2.744 2.228 4.975 4.967 4.975h175.72c2.737 0 4.966-2.231 4.966-4.975V5.203c0-2.744-2.229-4.975-4.966-4.975H39.908m175.72 257.595H39.908c-2.865 0-5.194-2.334-5.194-5.203V5.203c0-2.869 2.33-5.203 5.194-5.203h175.72c2.863 0 5.194 2.334 5.194 5.203V252.62c0 2.87-2.331 5.203-5.194 5.203M236.738.228c-2.738 0-4.966 2.231-4.966 4.975V252.62c0 2.744 2.228 4.975 4.966 4.975h175.72c2.739 0 4.967-2.231 4.967-4.975V5.203c0-2.744-2.228-4.975-4.967-4.975h-175.72m175.72 257.595h-175.72c-2.863 0-5.193-2.334-5.193-5.203V5.203c0-2.869 2.33-5.203 5.193-5.203h175.72c2.864 0 5.195 2.334 5.195 5.203V252.62c0 2.87-2.33 5.203-5.195 5.203"/>
        <path fill="#DDDED8" d="M178.271 219.418L117.846 219.418 114.178 177.032 174.603 177.032 178.271 219.418"/>
        <path fill="#EAEAE5" d="M181.4 219.418L120.976 219.418 117.308 177.032 177.732 177.032 181.4 219.418"/>
        <path fill="#FFFFFE" d="M129.235 210.316L127.221 186.133 169.471 186.133 171.486 210.316 129.235 210.316"/>
        <path fill="#9BA8D9" d="M184.765 298.474L191.855 298.474 191.855 219.418 184.765 219.418z"/>
        <path fill="#E9EDF3" d="M189.169 298.474L194.092 298.474 194.092 219.418 189.169 219.418z"/>
        <path fill="#EAEAE5" d="M125.47 228.144L194.092 228.144 194.092 219.418 125.47 219.418z"/>
        <path fill="#9BA8D9" d="M120.807 298.474L127.896 298.474 127.896 228.144 120.807 228.144z"/>
        <path fill="#E9EDF3" d="M125.21 298.474L130.134 298.474 130.134 228.144 125.21 228.144z"/>
        <path fill="#9BA8D9" d="M70.34 298.474L77.43 298.474 77.43 228.144 70.34 228.144z"/>
        <path fill="#E9EDF3" d="M74.744 298.474L79.668 298.474 79.668 228.144 74.744 228.144z"/>
        <path fill="#9BA8D9" d="M139.899 298.474L146.989 298.474 146.989 228.144 139.899 228.144z"/>
        <path fill="#E9EDF3" d="M144.302 298.474L149.226 298.474 149.226 228.144 144.302 228.144z"/>
        <path fill="#9BA8D9" d="M70.34 228.144L125.47 228.144 125.47 219.418 70.34 219.418z"/>
        <path fill="#D4D5CF" d="M117.798 141.21L331.039 141.21 331.039 22.297 117.798 22.297z"/>
        <path fill="#0526A0" d="M118.874 141.21L342.749 141.21 342.749 22.297 118.874 22.297z"/>
        <path fill="#FFFFFE" d="M122.532 137.548L339.091 137.548 339.091 25.96 122.532 25.96z"/>
        <path fill="#E9EDF3" d="M210.215 137.548L251.102 25.96 183.625 25.96 142.739 137.548 210.215 137.548M275.166 137.548L316.053 25.96 265.151 25.96 224.264 137.548 275.166 137.548"/>
        <path fill="#DDDED8" d="M380.5 298.476L398.626 298.476 398.626 184.904 380.5 184.904z"/>
        <path fill="#FAF9F6" d="M393.861 298.476L398.626 298.476 398.626 289.731 388.863 289.731 393.861 298.476"/>
        <path fill="#9BA8D9" d="M213.372 298.476L231.499 298.476 231.499 184.904 213.372 184.904z"/>
        <path fill="#FFF" d="M227.339 296.116L398.626 296.116 398.626 184.904 227.339 184.904z"/>
        <path fill="#0526A0" d="M231.491 219.876h162.983V190.29H231.491v29.587zm-.91.912h164.803v-31.41H230.581v31.41z"/>
        <path fill="#0526A0" d="M251.234 194.222c3.078 6.044 7.265 9.494 11.56 9.494h103.578c4.296 0 8.482-3.45 11.562-9.494h-126.7m115.138 10.405H262.794c-4.81 0-9.44-3.886-12.703-10.662l-.315-.654h129.616l-.315.654c-3.262 6.776-7.893 10.662-12.705 10.662"/>
        <path fill="#FAF9F6" d="M232.106 298.476L227.339 298.476 227.339 289.731 237.102 289.731 232.106 298.476"/>
        <path fill="#0526A0" d="M231.491 255.304h162.983v-29.588H231.491v29.588zm-.91.911h164.803v-31.41H230.581v31.41z"/>
        <path fill="#0526A0" d="M251.234 229.65c3.078 6.044 7.265 9.494 11.56 9.494h103.578c4.296 0 8.482-3.45 11.562-9.495h-126.7zm115.138 10.405H262.794c-4.81 0-9.44-3.886-12.703-10.663l-.315-.654h129.616l-.315.654c-3.262 6.777-7.893 10.663-12.705 10.663zM231.491 290.732h162.983v-29.587H231.491v29.587zm-.91.911h164.803v-31.41H230.581v31.41z"/>
        <path fill="#0526A0" d="M251.234 265.078c3.078 6.044 7.265 9.493 11.56 9.493h103.578c4.296 0 8.482-3.449 11.562-9.493h-126.7zm115.138 10.405H262.794c-4.81 0-9.44-3.887-12.703-10.663l-.315-.654h129.616l-.315.654c-3.262 6.776-7.893 10.663-12.705 10.663z"/>
        <path fill="#9BA8D9" d="M110.04 199.926L110.04 202.13 108.631 202.13 107.468 219.418 90.328 219.418 89.166 202.13 87.758 202.13 87.758 199.926 110.04 199.926"/>
        <path fill="url(#prefix__a)" d="M104.399 157.018c-1.41-10.298-15.284-13.239-32.89-13.616-16.753-.359-22.12-6.296-22.12-6.296s.053 24.045 24.195 32.75c22.923 8.268 32.226-2.522 30.815-12.838"/>
        <path fill="#DDDED8" d="M95.84 180.366c.294-4.236 7.046-12.02 23.284-8.482 11.743 2.559 16.108-3.538 16.108-3.538s-1.087 17.208-18.747 22.383c-16.769 4.913-21.162-2.915-20.646-10.363"/>
        <path fill="#DDDED8" d="M99.545 206.416c.177 0 .355-.074.479-.221 1.177-1.394.213-4.732-1.119-9.351-1.71-5.928-3.84-13.306-2.036-18.664 1.017-3.024 2.276-5.69 3.493-8.27 2.549-5.4 4.75-10.063 2.915-14.933-.123-.323-.483-.488-.807-.365-.323.123-.487.485-.365.808 1.648 4.372-.348 8.6-2.875 13.955-1.176 2.49-2.507 5.311-3.548 8.405-1.928 5.729.26 13.316 2.02 19.413 1.037 3.594 2.11 7.311 1.365 8.19-.223.266-.19.662.074.886.117.1.261.147.404.147"/>
        <path fill="url(#prefix__b)" d="M403.884 329.321c0 5.701-78.993 10.323-176.439 10.323-97.444 0-176.439-4.622-176.439-10.323 0-5.7 78.995-10.32 176.44-10.32s176.438 4.62 176.438 10.32"/>
        <path fill="#0526A0" d="M227.409 279.014L98.189 279.014 91.116 70.851 220.336 70.851 227.409 279.014"/>
        <path fill="#3769A4" d="M233.858 272.555L104.638 272.555 97.565 64.392 226.785 64.392 233.858 272.555"/>
        <path fill="#9BA8D9" d="M233.858 272.555h-129.22L97.565 64.392h129.22l7.073 208.163M162.966 87.686c-20.074 0-35.794 16.302-35.111 36.41.683 20.109 17.511 36.41 37.586 36.41 20.074 0 35.795-16.301 35.111-36.41-.683-20.108-17.511-36.41-37.586-36.41"/>
        <path fill="#0526A0" d="M200.552 124.096c.684 20.109-15.037 36.41-35.111 36.41-20.075 0-36.903-16.301-37.586-36.41-.683-20.108 15.037-36.41 35.111-36.41 20.075 0 36.903 16.302 37.586 36.41"/>
        <path fill="#FFFFFE" d="M194.202 124.092c.177 5.19-.973 10.062-3.14 14.314-4.74 9.365-14.434 15.735-25.838 15.735-11.404 0-21.53-6.37-26.909-15.735-2.455-4.252-3.934-9.124-4.11-14.314-.564-16.598 12.406-30.05 28.977-30.05 16.57 0 30.456 13.452 31.02 30.05"/>
        <path fill="#6A7EC8" d="M165.224 154.141c-11.404 0-21.53-6.37-26.909-15.735 7.381-5.054 16.345-8.005 26.102-8.005 9.758 0 18.922 2.951 26.646 8.005-4.741 9.365-14.435 15.735-25.839 15.735M164.309 127.197c-7.38 0-13.567-5.993-13.818-13.385-.25-7.393 5.528-13.385 12.909-13.385 7.379 0 13.566 5.992 13.817 13.385.251 7.392-5.528 13.385-12.908 13.385"/>
        <path fill="#FFFFFE" d="M207.902 197.171L125.471 197.171 124.913 180.763 207.345 180.763 207.902 197.171M208.9 226.497L126.467 226.497 125.909 210.09 208.342 210.09 208.9 226.497"/>
        <path fill="#0526A0" d="M171.377 225.854l-3.597.49-.362-4.304c-.765-.338-1.32-1.018-1.476-1.82-.256-1.303.623-2.51 1.96-2.693 1.33-.181 2.624.731 2.879 2.035.156.8-.11 1.592-.707 2.116l1.303 4.176zm5.707-13.508l-19.863 2.705c-.817.11-1.353.856-1.199 1.647l2.608 13.333c.156.797.949 1.356 1.764 1.245l19.864-2.707c.817-.11 1.354-.85 1.199-1.647l-2.608-13.334c-.155-.79-.949-1.353-1.765-1.242zM175.123 211.63c-.725.1-1.426-.394-1.564-1.103l-.256-1.305c-.703-3.593-4.132-6.304-7.843-5.98-3.969.346-6.628 3.855-5.886 7.651l.293 1.499c.14.709-.337 1.362-1.063 1.462-.726.098-1.427-.396-1.565-1.104l-.249-1.273c-.98-5.006 2.167-9.818 7.257-10.706 5.35-.932 10.627 2.683 11.647 7.899l.293 1.5c.138.707-.338 1.362-1.064 1.46M195.292 249.472L141.635 249.472 141.273 238.793 194.929 238.793 195.292 249.472"/>
        <path fill="#132529" d="M169.404 188.967c.056 1.657-1.24 3.002-2.894 3.002-1.654 0-3.042-1.345-3.099-3.002-.056-1.657 1.24-3 2.894-3 1.656 0 3.042 1.343 3.099 3M156.506 188.967c.057 1.657-1.24 3.002-2.893 3.002-1.656 0-3.043-1.345-3.099-3.002-.056-1.657 1.24-3 2.895-3 1.654 0 3.04 1.343 3.097 3M143.609 188.967c.056 1.657-1.24 3.002-2.895 3.002-1.654 0-3.041-1.345-3.097-3.002-.057-1.657 1.239-3 2.893-3 1.656 0 3.043 1.343 3.099 3M182.301 188.967c.057 1.657-1.24 3.002-2.894 3.002-1.654 0-3.04-1.345-3.097-3.002-.057-1.657 1.238-3 2.894-3 1.654 0 3.042 1.343 3.097 3M195.199 188.967c.056 1.657-1.239 3.002-2.894 3.002s-3.041-1.345-3.098-3.002c-.056-1.657 1.24-3 2.894-3 1.655 0 3.041 1.343 3.098 3"/>
        <path fill="#EEA987" d="M303.803 108.77c1.214 1.947 2.217 3.815 3.257 5.753 1.037 1.921 1.975 3.895 2.894 5.886 1.81 3.995 3.43 8.116 4.641 12.516.161.54.286 1.112.42 1.673l.2.843.1.421.116.696c.262 1.851.032 3.362-.283 4.695-.653 2.655-1.705 4.775-2.831 6.796-2.303 4.003-4.99 7.412-8.087 10.64l-3.832-2.905c1.89-3.592 3.757-7.353 5.13-10.972.665-1.799 1.225-3.63 1.389-5.134.08-.738.026-1.374-.075-1.61l-.36-1.115c-.15-.456-.282-.911-.463-1.372-1.311-3.678-2.979-7.373-4.794-11.015-1.791-3.629-3.774-7.323-5.727-10.772l8.305-5.023"/>
        <path fill="#E29873" d="M301.37 154.48l-4.178 2.22 4.803 5.634s2.999-2.032 3.133-5.134l-3.758-2.72M291.569 160.174L296.716 164.265 301.995 162.334 297.192 156.701 291.569 160.174"/>
        <path fill="#132529" d="M273.993 78.95c-.103.506-.454.862-.786.795-.33-.067-.515-.533-.412-1.04.103-.506.454-.863.786-.795.33.067.515.532.412 1.04"/>
        <path fill="#D9875E" d="M273.585 79.822s-1.743 2.69-3.296 3.842c.724 1.019 2.324.946 2.324.946l.972-4.788"/>
        <path fill="#DB916D" d="M271.945 97.703l.04-5.975 7.898.956s-.135 5.138-4.546 6.648l-3.392-1.629"/>
        <path fill="#D9875E" d="M274.216 87.426L279.778 89.026 279.883 92.684 271.984 91.728 274.216 87.426M278.265 97.23c-2.163-.993-3.92-2.903-4.7-5.31l6.315.764-.004.083-1.58.889c.226.907.399 1.87.468 2.824-.147.253-.312.505-.499.75"/>
        <path fill="#132529" d="M276.416 76.512l.207-.08c.122-.114.13-.307.016-.43-1.138-1.234-2.52-1.014-2.58-1.005-.165.03-.276.185-.247.35.028.166.186.276.347.25.046-.008 1.126-.167 2.034.818l.223.097"/>
        <path fill="#EEA987" d="M288.042 88.172c-.917 4.692-1.471 11.19 1.805 14.32 0 0-1.28 4.757-9.981 4.757-9.568 0-4.603-4.175-4.603-4.175 3.977-1.236 3.942-5.774 3.032-9.418l9.747-5.484"/>
        <path fill="#FF6800" d="M291.639 105.629c.851-1.209.817-5.028-.092-5.702-1.468-1.087-7.75-1.337-16.213.612.911 3.699-1.04 5.638-1.04 5.638l17.345-.548"/>
        <path fill="#3769A4" d="M319.038 321.004l-.179.059c-.12.057-.195.142-.23.259-.08.273.02.359.054.388.344.293 1.622.023 2.522-.338-.61-.216-1.598-.491-2.167-.368zm1.04 1.024c-.64.14-1.283.177-1.593-.086-.129-.111-.26-.324-.146-.706.06-.201.191-.352.39-.447.865-.413 2.85.397 2.935.432l.094.136-.086.142c-.304.146-.948.39-1.593.53z"/>
        <path fill="#3769A4" d="M319.827 319.244l-.067.019c-.187.064-.184.157-.183.196.01.43 1.031 1.294 1.781 1.644-.187-.512-.615-1.523-1.163-1.803-.125-.065-.246-.083-.368-.056zm1.812 2.266l-.075-.003c-.724-.212-2.272-1.313-2.29-2.04-.004-.132.041-.371.386-.491.225-.079.45-.06.673.053.855.438 1.396 2.214 1.418 2.29l-.038.15-.074.04zM271.807 321.862c-.106 0-.206.01-.293.034-.14.038-.237.107-.297.213-.107.188-.068.281-.03.335.299.415 1.916.424 3.106.255-.593-.304-1.738-.837-2.486-.837zm1.016 1.242c-.822 0-1.616-.113-1.881-.482-.094-.13-.167-.35.012-.664.1-.177.262-.296.48-.355 1.065-.29 3.302.986 3.398 1.04l.074.156-.12.125c-.41.081-1.198.18-1.963.18z"/>
        <path fill="#3769A4" d="M273.194 320.328l-.091.005c-.272.027-.29.135-.296.17-.07.435.97 1.525 1.758 2-.083-.505-.31-1.538-.844-1.978-.161-.132-.335-.197-.527-.197zm1.561 2.6l-.061-.015c-.773-.346-2.303-1.732-2.186-2.458.027-.17.148-.382.565-.425.31-.03.591.057.84.26.814.67.986 2.398.993 2.471l-.062.138-.089.029z"/>
        <path fill="#EEA987" d="M281.794 322.776L275.393 322.776 274.755 307.928 281.156 307.928 281.794 322.776M328.773 319.807L322.518 321.163 316.237 307.334 322.492 305.978 328.773 319.807"/>
        <path fill="#132529" d="M321.916 320.535l7.028-1.525c.256-.054.516.075.625.313l2.44 5.302c.253.55-.083 1.195-.675 1.313-2.463.49-3.686.604-6.777 1.274-1.901.413-6.194 1.46-8.82 2.03-2.568.557-3.53-1.957-2.506-2.425 4.591-2.102 6.51-3.953 7.753-5.677.224-.31.558-.525.932-.605M275.435 322.033h6.99c.262 0 .489.182.546.438l1.264 5.7c.13.589-.317 1.15-.921 1.14-2.522-.043-6.165-.191-9.334-.191-3.706 0-6.907.201-11.252.201-2.628 0-3.357-2.66-2.257-2.9 5.007-1.098 9.096-1.216 13.423-3.889.47-.29.989-.5 1.541-.5"/>
        <path fill="#3769A4" d="M301.307 103.942c6 1.377 10.945 16.717 10.945 16.717l-12.047 9.197s-4.421-4.175-6.389-11.849c-2.062-8.04 1.357-15.475 7.491-14.065"/>
        <path fill="#FFA466" d="M300.205 129.856s-.672-.634-1.609-1.863v-.002c.906 1.188 1.565 1.822 1.61 1.865m.483-.368l.05-.04c-.153-3.113-.606-6.51-1.674-9.42.433-5.258 1.14-10.693 2.242-16.086 0 0-.18-.037-.51-.099.168.027.337.058.51.099 6 1.377 10.945 16.717 10.945 16.717l-9.436 7.204-2.127 1.625"/>
        <path fill="#EEA987" d="M269.762 122.25c-1.498 1.618-2.99 3.057-4.536 4.538-.767.736-1.552 1.459-2.353 2.166l-1.209 1.06-.305.263c-.147.128-.326.278-.518.425-.4.296-.84.642-1.758 1.04-.487.188-1.113.436-2.214.459-.523.008-1.233-.083-1.91-.34-.692-.257-1.363-.702-1.822-1.16-.951-.958-1.239-1.798-1.426-2.36-.174-.58-.224-.994-.26-1.356-.057-.707-.022-1.187.017-1.629.043-.438.104-.817.17-1.174.267-1.406.646-2.539 1.057-3.674.416-1.125.876-2.203 1.414-3.295.577-1.16 1.136-2.003 1.692-2.974 2.248-3.765 4.888-7.203 7.69-10.444 2.865-3.219 5.872-6.161 9.33-8.858l3.349 3.452c-2.353 3.153-4.666 6.532-6.805 9.865-2.135 3.357-4.115 6.775-5.822 10.25-.393.859-.877 1.8-1.15 2.519-.32.784-.613 1.628-.854 2.457-.238.821-.43 1.676-.516 2.304-.02.15-.03.283-.03.36-.003.07.016.108.007-.085-.01-.106-.02-.264-.118-.597-.11-.316-.283-.918-1.05-1.695-.37-.364-.924-.744-1.5-.95-.555-.218-1.137-.283-1.53-.281-.844.019-1.218.191-1.468.28-.446.194-.456.246-.451.226l.35-.32 1.091-1.002 2.176-2.042c1.44-1.358 2.888-2.808 4.257-4.153l7.005 6.725"/>
        <path fill="#BEBFBB" d="M300.209 129.858l-.003-.002.483-.368-.48.37"/>
        <path fill="#8F5C28" d="M300.206 129.856c-.045-.043-.704-.677-1.61-1.865.095-2.586.246-5.253.47-7.964 1.067 2.91 1.52 6.308 1.674 9.42l-.051.041-.483.368"/>
        <path fill="#3769A4" d="M263.398 110.37c-1.308 6.926-2.127 21.15 1.671 49.318h34.235c.236-5.263-3.065-30.943 2.003-55.746 0 0-5.868-1.18-11.46-1.45-4.375-.211-10.708-.352-14.553 0-1.606.147-3.181.379-4.585.627-3.702.657-6.612 3.55-7.311 7.25"/>
        <path fill="#FFA466" d="M299.304 159.688H265.07c-1.659-12.298-2.437-21.939-2.678-29.473l.005-.003c.032.985.073 2.008.124 3.067 1.404-1.599 2.997-3.638 4.21-5.816 4.48-3.114 10.432-8.161 10.436-13.014 0-.664-.11-1.325-.352-1.976-1.7-4.59-2.66-9.306-6.099-9.306-.102 0-.206.003-.311.013.1-.022.202-.042.305-.06 1.404-.25 2.979-.481 4.585-.628 1.695-.155 3.872-.214 6.154-.214 2.893 0 5.953.096 8.399.213 5.592.27 11.46 1.45 11.46 1.45-1.103 5.394-1.809 10.829-2.242 16.086-.223 2.711-.374 5.378-.469 7.964v.002c-.093 2.578-.132 5.08-.132 7.475 0 11.216.854 20.097.853 23.59v.135c-.002.181-.005.346-.013.495"/>
        <path fill="#8F5C28" d="M262.52 133.28c-.05-1.06-.092-2.083-.124-3.068.809-.464 2.44-1.434 4.333-2.75-1.212 2.18-2.805 4.218-4.209 5.817"/>
        <path fill="#BEBFBB" d="M281.488 315.585L281.485 315.585 281.156 307.932 281.161 307.932 281.488 315.585"/>
        <path fill="#DB916D" d="M281.485 315.585L275.085 315.585 275.084 315.577 274.757 307.932 281.156 307.932 281.485 315.585"/>
        <path fill="#BEBFBB" d="M325.732 313.11L325.105 311.73 325.108 311.729 325.736 313.109 325.732 313.11"/>
        <path fill="#DB916D" d="M319.477 314.466L318.85 313.086 325.105 311.73 325.732 313.11 319.477 314.466"/>
        <path fill="#EEA987" d="M291.085 81.311c-1.644 6.146-2.295 9.826-6.081 12.382-5.696 3.844-12.788-.567-13.009-7.081-.2-5.864 2.523-14.93 9.108-16.17 6.487-1.22 11.627 4.722 9.982 10.869"/>
        <path fill="#132529" d="M276.72 81.546c-.305-.824-1.723-7.175-.391-8.824 1.331-1.648 16.48-.463 18.721 1.745 3.717 3.664 1.139 6.933-2.93 11.152-3.06 3.172-3.179 6.748-4.722 7.273-2.705.92-6.898.055-7.74-2.837-.84-2.892-2.939-8.509-2.939-8.509"/>
        <path fill="#132529" d="M293.214 67.243c-5.355-2.284-15.395.243-20.816-1.067-.193 2.813 1.5 7.321 6.922 8.534 0 0 7.696 1.503 13.65 1.26 5.953-.242 4.792-6.788.244-8.727"/>
        <path fill="#132529" d="M294.052 74.662s3.311.373 5.663-1.089c1.005 2.424-4.5 3.09-5.663 1.09"/>
        <path fill="#DB916D" d="M279.638 81.799c-.1 1.663-.871 3.23-1.799 4.253-1.396 1.54-2.85.58-3.098-1.294-.223-1.689.235-4.524 1.94-5.374 1.682-.837 3.07.512 2.957 2.415"/>
        <path fill="#3769A4" d="M277.213 159.688s7.265 48.998 11.252 67.355c4.368 20.1 27.784 86.607 27.784 86.607l11.457-2.484s-16.373-54.199-20.039-82.301c-2.815-21.587-8.363-69.177-8.363-69.177h-22.09"/>
        <path fill="#132529" d="M313.505 309.818L315.641 313.969 328.532 311.174 327.445 307.292 313.505 309.818"/>
        <path fill="#A0A29F" d="M288.304 226.308l-.124-.592h.003l.122.58v.012m-.31-1.503h-.004c-.254-1.244-.52-2.589-.794-4.017h.002c.274 1.427.54 2.773.795 4.017m-.97-4.929c-.645-3.403-1.331-7.237-2.03-11.28.7 4.043 1.386 7.876 2.03 11.28"/>
        <path fill="#90938F" d="M287.199 220.788h-.002c-.057-.3-.116-.605-.173-.912.06.307.117.612.175.912M288.183 225.716h-.003l-.189-.911h.003c.064.31.127.614.19.911"/>
        <path fill="#1D5697" d="M288.305 226.295l-.122-.579-.189-.911c-.255-1.244-.521-2.59-.795-4.017l-.174-.912c-.645-3.404-1.331-7.237-2.031-11.28-1.775-10.27-3.63-21.89-5.08-31.223.381-.191.796-.292 1.246-.292.207 0 .422.02.644.065 8.398 1.65 7.511 33.009 6.501 49.15"/>
        <path fill="#3769A4" d="M265.07 159.689s-.882 47.936-.186 67.488c.724 20.338 7.816 86.926 7.816 86.926h10.842s.399-65.4.881-85.373c.525-21.774 3.15-69.041 3.15-69.041H265.07"/>
        <path fill="#132529" d="M270.613 309.776L271.225 314.286 284.415 314.286 284.772 310.261 270.613 309.776"/>
        <path fill="#3769A4" d="M276.814 112.473c3.07 8.285-14.962 18.044-14.962 18.044l-7.806-10.053s5.208-10.382 11.6-15.063c7.894-5.781 8.832.765 11.168 7.072"/>
        <path fill="#FFA466" d="M261.853 130.517l-7.807-10.053s5.208-10.382 11.6-15.063c2.149-1.574 3.782-2.234 5.069-2.234 3.44 0 4.399 4.716 6.099 9.306.242.651.352 1.312.352 1.976-.004 4.853-5.956 9.9-10.437 13.014-1.894 1.315-3.524 2.285-4.333 2.749-.002 0-.004.002-.005.003-.345.196-.538.302-.538.302"/>
        <path fill="#0526A0" d="M380.29 28.605c0 11.578-14.702 20.965-32.838 20.965-18.138 0-32.84-9.387-32.84-20.965 0-11.58 14.702-20.965 32.84-20.965 18.136 0 32.838 9.386 32.838 20.965"/>
        <path fill="#FFFFFE" d="M335.634 25.02c-.335 0-.674.034-1.01.104-1.287.266-2.394 1.017-3.116 2.114-.72 1.099-.972 2.414-.707 3.706.266 1.288 1.016 2.395 2.114 3.119 1.098.724 2.412.976 3.698.71 1.288-.267 2.395-1.02 3.116-2.118.721-1.099.971-2.414.706-3.703-.267-1.292-1.016-2.401-2.112-3.123-.81-.533-1.739-.81-2.689-.81zm-.027 10.768c-1.126 0-2.229-.329-3.191-.963-1.302-.858-2.192-2.17-2.505-3.697-.315-1.53-.018-3.09.839-4.391.855-1.3 2.165-2.191 3.69-2.506 1.527-.316 3.084-.019 4.384.837 1.298.856 2.187 2.17 2.502 3.7.314 1.527.018 3.085-.836 4.387-.855 1.303-2.167 2.195-3.694 2.51-.396.082-.794.123-1.189.123zm-1.83-13.934c-4.221.96-7.056 5.221-6.319 9.498.385 2.237 1.627 4.172 3.497 5.448 1.87 1.276 4.12 1.728 6.337 1.27 3.518-.727 6.154-3.617 6.558-7.19l.037-.328 7.358-1.522c.425-.088.864.016 1.205.284.342.267.547.669.564 1.102l.042 1.036c.01.263.197.488.434.523.81.12 1.51.596 1.92 1.303.1.173.29.34.535.29l.425-.088c.24-.05.353-.28.376-.478.136-1.146.99-2.073 2.123-2.307 1.13-.234 2.276.28 2.853 1.278.1.173.29.342.534.29l.435-.09c.24-.049.352-.279.374-.476.095-.814.547-1.526 1.24-1.958.205-.127.286-.407.192-.651l-.371-.97c-.156-.405-.125-.855.082-1.236.209-.381.571-.65.996-.737l.553-.114c.615-.128 1.136-.492 1.468-1.026.331-.534.425-1.165.266-1.776-.3-1.146-1.558-1.872-2.801-1.613l-21.721 4.49-.163-.286c-1.822-3.186-5.445-4.783-9.029-3.966zm1.818 17.303c-1.824 0-3.605-.547-5.152-1.604-2.076-1.415-3.454-3.563-3.882-6.046-.817-4.747 2.33-9.476 7.015-10.543 3.858-.876 7.777.771 9.849 4.118l21.082-4.36c1.708-.352 3.443.668 3.864 2.277.223.855.09 1.738-.373 2.486-.465.75-1.194 1.26-2.057 1.438l-.553.115c-.166.033-.3.134-.38.281-.08.145-.093.319-.032.473l.37.969c.253.655.018 1.392-.56 1.752-.45.28-.755.762-.817 1.29-.075.645-.504 1.141-1.096 1.264l-.433.089c-.59.12-1.18-.162-1.506-.726-.38-.658-1.135-.997-1.882-.842-.749.155-1.312.767-1.403 1.521-.077.647-.508 1.143-1.096 1.264l-.425.088c-.583.12-1.18-.163-1.506-.725-.266-.46-.74-.782-1.266-.86-.673-.1-1.181-.684-1.21-1.387l-.042-1.037c-.006-.167-.082-.317-.214-.42-.132-.104-.29-.142-.462-.108l-6.717 1.389c-.57 3.813-3.44 6.865-7.236 7.65-.626.13-1.255.194-1.88.194z"/>
        <path fill="#9BA8D9" d="M320.716 61.86c-5.96 0-10.794-3.085-10.794-6.89 0-3.806 4.833-6.89 10.794-6.89s10.793 3.084 10.793 6.89c0 3.805-4.832 6.89-10.793 6.89"/>
        <path fill="#E9EDF3" d="M303.548 64.69c-.57 0-1.115-.069-1.615-.194l1.998-5.454c2.268.124 4.048 1.339 4.048 2.819 0 1.562-1.984 2.828-4.431 2.828"/>
        <path fill="#E5E6EB" d="M301.933 64.496c-1.648-.413-2.816-1.436-2.816-2.635 0-1.563 1.984-2.829 4.43-2.829.13 0 .257.004.384.01l-1.998 5.454"/>
    </g>
</svg>
