<svg xmlns="http://www.w3.org/2000/svg" width="403" height="340" viewBox="0 0 403 340">
    <g fill="none" fill-rule="evenodd">
        <path fill="#0526A0" d="M342.539 305.933L341.889 303.398 349.249 301.511 349.899 304.046 342.539 305.933"/>
        <path fill="#0526A0" d="M338.783 309.596L338.135 307.061 345.494 305.175 346.145 307.709 338.783 309.596"/>
        <path fill="#0526A0" d="M335.029 313.259L334.379 310.724 341.741 308.838 342.39 311.373 335.029 313.259"/>
        <path fill="#0526A0" d="M331.276 316.921L330.624 314.387 337.985 312.501 338.635 315.035 331.276 316.921"/>
        <path fill="#CBD5FF" d="M89.822 153.052c-4.664 2.736-12.257 2.79-16.959.12-4.701-2.673-4.733-7.056-.068-9.795 4.663-2.736 12.257-2.79 16.959-.116 4.702 2.67 4.733 7.055.068 9.791zm97.21-77.563l-69.08 40.537c-17.513-5.375-39.828-3.714-54.554 4.928-17.914 10.512-17.796 27.354.265 37.615 4.055 2.303 8.67 4.08 13.59 5.33 3.477.884 7.106 1.505 10.798 1.865 14.369 1.398 29.702-1.164 40.755-7.652 13.387-7.855 16.7-19.245 9.985-28.783l9.532-5.594-.27-6.051 10.031-.07-.252-5.668 10.031-.07-.253-5.669 10.032-.07-.253-5.667 10.032-.07-.254-5.669 10.71-.075 3.268-1.917 3.606-14.882-17.72-2.368zM224.823 331.911l-93.165-53.575c-6.273-3.622-5.486-9.949 1.757-14.131l90.421-52.214c7.243-4.181 18.2-4.636 24.472-1.014l93.165 53.574c6.272 3.624 5.485 9.95-1.758 14.132l-90.421 52.214c-7.243 4.182-18.2 4.638-24.47 1.014"/>
        <path fill="#4C68D1" d="M334.045 210.443l-16.107-9.3 59.387-34.29c2.804-1.621 2.804-4.256 0-5.877l-60.668-35.03c-2.805-1.621-7.368-1.621-10.174 0l-59.385 34.29-16.108-9.3 59.387-34.293c11.684-6.746 30.699-6.746 42.386.002l60.668 35.032c11.685 6.748 11.685 17.728.001 24.476l-59.387 34.29"/>
        <path fill="#A8B7EE" d="M360.035 214.54c0-8.614-5.235-18.616-11.694-22.347l-107.595-62.13c-2.892-1.67-5.534-1.789-7.575-.648l-.007-.004-128.469 74.666 124.235 93.629 126.565-73.472c.391-.178.77-.384 1.118-.65h.002-.001c2.114-1.601 3.421-4.742 3.421-9.044"/>
        <path fill="#0526A0" d="M228.93 297.706l126.565-73.472c.391-.178.77-.384 1.118-.65h.002l-.001-.001c2.114-1.6 3.421-4.741 3.421-9.043 0-4.112-1.202-8.534-3.152-12.444l-144.274 83.31 16.321 12.3"/>
        <path fill="#4C68D1" d="M220.837 297.374l-107.595-62.131c-6.46-3.73-11.693-13.733-11.693-22.347 0-8.611 5.234-12.569 11.693-8.841l107.595 62.132c6.46 3.728 11.695 13.733 11.695 22.344 0 8.614-5.236 12.572-11.695 8.843"/>
        <path fill="#FFFFFE" d="M204.723 276.42l-12.936-7.464c-1.287-.743-2.332-2.737-2.332-4.454 0-1.716 1.045-2.505 2.332-1.762l12.936 7.463c1.287.744 2.33 2.737 2.33 4.454 0 1.716-1.043 2.506-2.33 1.763"/>
        <path fill="#0526A0" d="M107.587 57.631L129.695 70.192 152.252 56.954 152.191 51.196 152 51.308 151.982 50.903 162.013 50.833 161.953 45.164 171.79 45.095 171.731 39.425 181.569 39.356 181.51 33.687 191.348 33.619 191.289 27.948 201.806 27.874 205.072 25.958 208.68 11.076 208.62 5.316 206.88 10.835 190.96 8.708 107.587 57.631"/>
        <path fill="#A8B7EE" d="M129.634 64.433L152.191 51.196 151.921 45.144 161.953 45.075 161.7 39.407 171.731 39.337 171.479 33.668 181.51 33.598 181.255 27.929 191.288 27.861 191.034 22.192 201.747 22.116 205.015 20.2 208.62 5.316 190.9 2.95 107.528 51.873 129.634 64.433"/>
        <path fill="#3B6397" d="M144.655 55.619c-2.27-3.226-5.68-6.241-10.245-8.835-3.216-1.827-6.795-3.307-10.589-4.47l-16.293 9.56 22.106 12.559 15.021-8.814"/>
        <path fill="#4C68D1" d="M208.015 7.816L208.62 5.316 205.647 4.92 135.205 46.258 138.914 48.365 208.015 7.816"/>
        <path fill="#CECBC5" d="M54.158 75.797L53.914 67.611 56.534 73.138 54.158 75.797"/>
        <path fill="#0526A0" d="M93.866 78.9c4.702 2.671 4.733 7.057.069 9.793-4.664 2.738-12.258 2.79-16.96.12-4.7-2.674-4.732-7.057-.068-9.795 4.665-2.736 12.257-2.788 16.96-.118zm-26.09 15.31c18.062 10.263 47.227 10.057 65.143-.455 8.982-5.271 13.429-12.132 13.356-18.958l.002.004-.251-8.671-1.472 1.64c-2.08-4.275-6.039-8.302-11.901-11.63-18.06-10.262-47.227-10.058-65.14.455-17.917 10.514-17.799 27.355.262 37.615z"/>
        <path fill="#F4F4F1" d="M93.622 70.719c4.703 2.673 4.733 7.056.069 9.794-4.665 2.736-12.258 2.79-16.96.118-4.7-2.671-4.732-7.057-.068-9.793 4.663-2.737 12.256-2.79 16.96-.12zm-26.09 15.31c18.06 10.262 47.227 10.058 65.141-.456 17.916-10.513 17.798-27.354-.263-37.615-18.06-10.262-47.226-10.058-65.143.456-17.915 10.513-17.797 27.354.266 37.615z"/>
        <path fill="#7084CD" d="M88.472 90.511c-3.972.621-8.368.078-11.496-1.698-3.372-1.917-4.328-4.711-2.887-7.15l-8.182-6.489s-4.277-4.826-8.511-9.61c-6.588 9.63-3.12 20.975 10.38 28.646 5.955 3.385 12.63 5.306 20.199 6.42l.497-10.119"/>
        <path fill="#A8B7EE" d="M93.622 70.719c4.703 2.673 4.733 7.056.069 9.794-4.665 2.736-12.258 2.79-16.96.118-4.7-2.671-4.732-7.057-.068-9.793 4.663-2.737 12.256-2.79 16.96-.12zm-26.09 15.31c4.055 2.304 8.67 4.08 13.59 5.33 3.476.885 7.105 1.506 10.799 1.864 14.367 1.4 29.701-1.163 40.752-7.65 17.916-10.513 17.798-27.354-.263-37.615-18.06-10.262-47.226-10.058-65.143.456-17.915 10.513-17.797 27.354.266 37.615z"/>
        <path fill="#3B6397" d="M58.998 67.391c.88-5.244 4.766-10.364 11.685-14.425 15.939-9.354 41.888-9.535 57.958-.406 7.986 4.538 12.02 10.52 12.112 16.54 1.145-6.836-2.827-13.875-11.922-19.042-16.068-9.13-42.017-8.948-57.956.404-8.018 4.707-11.968 10.835-11.877 16.93"/>
        <path fill="#0526A0" d="M70.483 72.497c-3.252 0-6.895 1.13-10.696 3.359C46.265 83.79 35.354 103 35.467 118.68c.05 7.306 2.48 12.693 6.843 15.169 4.361 2.476 10.23 1.81 16.53-1.887 13.523-7.933 24.433-27.145 24.323-42.823-.03-4.302-.909-8.05-2.544-10.835-1.103-1.882-2.552-3.341-4.301-4.336-1.73-.983-3.697-1.471-5.835-1.471zm-22.35 69.347c-3.245 0-6.295-.773-9.038-2.332-6.473-3.674-10.075-11.055-10.14-20.788-.127-17.75 12.226-39.5 27.536-48.485 8.388-4.923 16.571-5.612 23.044-1.933 2.757 1.567 5.011 3.822 6.7 6.7 2.245 3.827 3.402 8.567 3.44 14.089.125 17.75-12.23 39.502-27.539 48.486-4.832 2.833-9.597 4.263-14.004 4.263z"/>
        <path fill="#8091D3" d="M78.985 86.904l12.86 3.152 1.846-9.543c-4.665 2.736-12.258 2.79-16.96.118l2.254 6.273"/>
        <path fill="#8091D3" d="M67.533 86.03c4.054 2.303 8.668 4.08 13.59 5.33 3.475.884 7.104 1.505 10.798 1.863 14.367 1.4 29.701-1.163 40.752-7.65l-52.365-1.175-12.775 1.631"/>
        <path fill="#2A45A9" d="M86.88 92.643s-5.566-.906-11.372-2.932v8.035c2.767.966 7.328 2.365 11.233 2.882 11.99 1.583.14-7.985.14-7.985"/>
        <path fill="#2A45A9" d="M78.53 90.68c-2.393-.706-5-1.607-7.407-2.734-7.005-3.28 1.856 8.872 1.856 8.872s2.386.95 5.551 1.92V90.68"/>
        <path fill="#5589BB" d="M209.903 231.862L186.991 246.641 175.837 244.83 203.08 231.658 209.903 231.862"/>
        <path fill="#263764" d="M182.201 306.481s-6.6-3.33-10.653 1.629c-4.052 4.956-9.846 16.656-10.026 24.563-.18 7.905 6.256 7.373 10.08 5.5 3.828-1.87 15.002-18.082 15.68-21.259.675-3.178-.799-7.473-1.875-8.313-1.074-.84-3.206-2.12-3.206-2.12"/>
        <path fill="#5589BB" d="M183.642 304.89l.304 6.84c.066 1.454-.665 2.838-1.931 3.557-1.153.654-2.827 1.156-5.091.79-4.972-.798-5.416-2.219-5.771-9.056-.354-6.837 12.489-2.13 12.489-2.13"/>
        <path fill="#263764" d="M158.043 293.33s-6.6-3.327-10.653 1.63c-4.052 4.956-9.846 16.657-10.026 24.564-.18 7.905 6.256 7.372 10.08 5.502 3.826-1.873 15.002-18.084 15.678-21.26.677-3.179-.797-7.473-1.873-8.314-1.074-.84-3.206-2.121-3.206-2.121"/>
        <path fill="#5589BB" d="M159.484 291.74l.304 6.839c.066 1.454-.665 2.84-1.931 3.559-1.153.654-2.827 1.156-5.091.79-4.972-.798-5.416-2.219-5.771-9.056-.354-6.837 12.489-2.132 12.489-2.132"/>
        <path fill="#D4EAF2" d="M218.373 166.19c-1.954-31.787-34.42 4.676-34.42 4.676l-22.221 21.784-20.009 21.984c-3.908 4.293-5.726 10.09-4.969 15.847l8.093 61.643c.4 3.045 3.005 5.29 6.075 5.266.866-.007 1.86-.085 2.998-.262 7.221-1.124 6.688-7.991 6.688-7.991l-1.48-57.656 42.021-25.334s19.175-8.17 17.224-39.957"/>
        <path fill="#5589BB" d="M175.186 220.584l-5.98-2.196c-.14 0-10.165 9.7-10.077 13.093l4.497 1.445 11.297-10.966.263-1.376M209.903 231.862s24.972-14.26 27.96-20.24c1.172-2.341 2.991-4.787-4.296-8.327l-33.303 23.744 1.443 8.175 8.196-3.352"/>
        <path fill="#D4EAF2" d="M242.532 178.456c-2.084-31.778-34.42 4.676-34.42 4.676l-22.222 21.785-20.009 21.984c-3.908 4.293-5.726 10.091-4.969 15.848l8.094 61.644c.4 3.044 3.004 5.29 6.074 5.266.867-.008 1.86-.086 2.998-.265 7.221-1.124 6.688-7.991 6.688-7.991l-1.48-57.655 42.021-25.335s19.128-10.902 17.225-39.957"/>
        <path fill="#FFA466" d="M223.324 76.261c24.614 10.209 24.12 24.76 24.12 24.76s-4.822 53.35-3.175 88.979c.688 14.895-79.123 16.032-67.22-23.706 14.032-46.853 8.774-84.783 15.342-90.503 6.57-5.721 24.566-2.169 30.933.47"/>
        <path fill="#EEA886" d="M231.242 89.165c-1.287 4.998-7.835 7.633-14.624 5.883-6.79-1.748-11.251-7.218-9.963-12.217 1.288-4.999 7.836-7.632 14.625-5.884 6.79 1.75 11.251 7.22 9.962 12.218"/>
        <path fill="#FF6800" d="M217.068 77.58c-4.57 0-8.394 2.128-9.274 5.544-.526 2.046.085 4.28 1.726 6.29 1.723 2.114 4.348 3.71 7.391 4.494 6.15 1.58 12.068-.674 13.192-5.035.527-2.047-.085-4.28-1.725-6.29-1.723-2.116-4.348-3.711-7.391-4.497-1.334-.343-2.656-.506-3.92-.506zm3.706 19.181c-1.443 0-2.942-.185-4.45-.573-3.525-.909-6.589-2.785-8.628-5.286-2.125-2.604-2.9-5.574-2.18-8.364 1.445-5.62 8.651-8.642 16.057-6.73 3.526.907 6.59 2.787 8.63 5.287 2.124 2.605 2.898 5.575 2.179 8.363-1.152 4.476-5.958 7.303-11.608 7.303z"/>
        <path fill="#EEA886" d="M213.456 75.152s.21.987-.216 8.788c-.133 2.453 8.452 4.744 10.673 2.524 2.22-2.22 1.331-4.528 1.864-12.875.534-8.346-12.321 1.563-12.321 1.563"/>
        <path fill="#C78D71" d="M213.398 80.028v-2.764l12.38-3.675s-1.957 3.471-12.38 6.44z"/>
        <path fill="#EEA886" d="M232.379 53.927c2.62 10.133-3.47 20.47-13.6 23.09-10.13 2.618-20.466-3.472-23.085-13.604-2.62-10.132 3.469-20.469 13.6-23.09 10.13-2.619 20.467 3.472 23.085 13.604"/>
        <path fill="#C78D71" d="M218.388 59.366s-10.432 4.469-17.656 4.52c-7.222.052-5.63-5.998-5.63-5.998l21.442-3.1 1.844 4.578"/>
        <path fill="#3A3F47" d="M198.58 60.543s9.087-3.858 17.058-2.25c1.875.379 3.612 1.382 4.818 2.864.395.484.894.927 1.459 1.055 1.413.32 3.727-5.546 6.475-5.679 2.747-.134 4.581 1.811 2.328 5.42-2.253 3.607-1.49 7.644-.456 8.223 1.038.578 12.033-7.844 2.335-27.06-9.7-19.215-34.335-8.865-38.167-4.97 0 0-4.036 3.516-7.319.386 0 0-3.68 27.568 11.47 22.011"/>
        <path fill="#F3BCA9" d="M233.636 139.999v14.414c0 1.652-.694 3.228-1.915 4.34l-29.61 27 3.364 5.146 39.104-28.364c1.824-1.324 3-3.36 3.236-5.603l2.644-25.141-16.823 8.208"/>
        <path fill="#FFA466" d="M245.36 93.812s8.984 13.513 12.33 49.077c0 0-15.344 4.963-24.054 2.144-8.707-2.816 11.724-51.22 11.724-51.22"/>
        <path fill="#DA8348" d="M231.996 110.896s-3.516 18.825-3.716 27.672c-.055 2.43 1.43 4.625 3.716 5.452v-33.124"/>
        <path fill="#263764" d="M224.315 204.498l-6.546-.864-42.243-24.394c-1.355-.783-3.72-.684-5.285.22l-29.934 17.278-3.956-.524v3.942h.004c-.027.518.269 1.018.908 1.387l47.876 27.644c1.354.784 3.719.684 5.283-.218l32.6-18.818c.88-.508 1.317-1.162 1.293-1.776v-3.877"/>
        <path fill="#3B6397" d="M192.572 189.084l-3-1.733h-32.997l-16.268 9.387-3.956-.524v3.942h.004c-.027.518.269 1.018.908 1.387l47.876 27.644c.715.414 1.713.579 2.726.512l4.707-40.615"/>
        <path fill="#5589BB" d="M138.107 196.446l-1.756-.232v3.942h.004c-.027.518.269 1.018.908 1.387l.844.487v-5.584"/>
        <path fill="#2B4876" d="M185.62 229.412c1.284.487 3.118.381 4.49-.28v-6.7h-4.49v6.98"/>
        <path fill="#FFFFFE" d="M185.139 225.25l-47.876-27.644c-1.355-.782-1.185-2.149.38-3.05l32.598-18.82c1.564-.902 3.93-1 5.285-.218l47.876 27.644c1.354.782 1.184 2.149-.38 3.05l-32.6 18.82c-1.564.902-3.929 1-5.283.218"/>
        <path fill="#D4EAF2" d="M184.329 221.062l-39.808-22.989c-1.127-.65-.986-1.786.315-2.537l17.469-9.825c1.3-.751 3.268-.832 4.393-.18l39.808 22.985c1.127.651.986 1.786-.315 2.538l-17.47 9.825c-1.299.75-3.267.831-4.392.183"/>
        <path fill="#F3BCA9" d="M172.093 174.828l-.495 3.304c-.423 2.816-.349 5.683.216 8.473l.59 2.91c.332 1.643 1.63 2.917 3.278 3.216 1.288.234 2.503-.67 2.65-1.97l.79-7.062s1.806 2.366 2.679 2.366c.872 0-.977-7.073-2.949-11.076-1.973-4.003-6.759-.16-6.759-.16"/>
        <path fill="#F3BCA9" d="M188.322 122.319l-5.137 10.168c-1.215 2.405-1.93 5.032-2.102 7.72l-2.23 34.782-6.76-.16-3.067-39.06c-.095-1.207-.037-2.42.175-3.612l3.502-19.808 15.619 9.97"/>
        <path fill="#263764" d="M183.517 227.907l-4.015-5.243-42.215-24.445c-1.353-.783-2.448-2.882-2.446-4.69l.038-34.565-2.43-3.17 2.282-1.322.003.003c.435-.281 1.017-.273 1.655.096l47.84 27.705c1.355.782 2.45 2.881 2.45 4.687l-.042 37.647c-.001 1.017-.35 1.722-.895 2.007l-2.225 1.29"/>
        <path fill="#3B6397" d="M154.323 208.085l-2.998-1.738-16.464-28.6.018-18.783-2.43-3.17 2.282-1.322.003.003c.435-.281 1.017-.273 1.655.096l47.84 27.705c.716.412 1.358 1.196 1.805 2.108l-31.711 23.701"/>
        <path fill="#5589BB" d="M133.527 157.2l-1.077-1.406 2.28-1.322.004.003c.435-.281 1.017-.273 1.655.096l.842.488-3.704 2.14"/>
        <path fill="#2B4876" d="M184.666 182.581c1.062.87 1.886 2.513 1.998 4.03l-4.675 2.7-2.24-3.892 4.917-2.838"/>
        <path fill="#5589BB" d="M181.952 183.594l-47.84-27.704c-1.355-.783-2.453.046-2.456 1.852l-.04 37.645c-.002 1.806 1.092 3.906 2.446 4.69l47.842 27.704c1.353.783 2.452-.046 2.455-1.852l.04-37.646c0-1.805-1.093-3.904-2.447-4.689"/>
        <path fill="#F3BCA9" d="M205.475 190.899l-.766 1.589c-.883 1.829-2.27 3.367-3.999 4.432l-4.752 2.93c-1.478.912-3.35.987-4.851.112l-.162-.097c-1.51-.947-1.646-3.116-.404-4.394l4.966-5.105s-2.79 2.137-3.57 1.277c-.574-.632 2.704-3.71 5.22-3.812 2.519-.1 4.954-2.077 4.954-2.077l3.364 5.145"/>
        <path fill="#FFA466" d="M192.883 75.716s-18.203 19.812-25.548 37.986c0 0 6.225 11.218 21.464 15.62 15.238 4.4 4.084-53.606 4.084-53.606"/>
        <path fill="#DA8348" d="M185.37 128.146l2.952-28.508-6.953 26.71c1.24.645 2.58 1.246 4.001 1.798"/>
        <path fill="#FFFFFE" d="M206.518 71.718l-4.89-1.345s2.335 3.676 5.744 4.612c3.41.936 3.94-1.95 3.94-1.95l-4.794-1.317"/>
        <path fill="#9BA8D9" d="M113.673 3.504c-5.908 0-10.712 4.805-10.712 10.714 0 5.908 4.804 10.713 10.712 10.713 5.907 0 10.711-4.805 10.711-10.713 0-5.909-4.804-10.714-10.71-10.714zm0 24.418c-7.555 0-13.702-6.148-13.702-13.704 0-7.557 6.147-13.705 13.702-13.705s13.702 6.148 13.702 13.705c0 7.556-6.147 13.704-13.702 13.704z"/>
        <path fill="#0526A0" d="M390.682 110.231c-3.709 0-6.727 3.018-6.727 6.728 0 3.708 3.018 6.725 6.727 6.725 3.708 0 6.725-3.017 6.725-6.725 0-3.71-3.017-6.728-6.725-6.728zm0 16.445c-5.356 0-9.717-4.36-9.717-9.717 0-5.358 4.36-9.72 9.717-9.72s9.716 4.362 9.716 9.72c0 5.357-4.359 9.717-9.716 9.717zM69.507 290.191l3.956 8.05 8.047-3.956-3.956-8.049-8.047 3.955zm2.593 12.052l-6.596-13.414 13.413-6.596 6.596 13.415-13.413 6.595zM264.188 82.25l3.956 8.05 8.048-3.957-3.955-8.05-8.049 3.957zm2.594 12.053l-6.595-13.417L273.6 74.29l6.595 13.416-13.413 6.597zM57.119 226.599L50.952 229.631 47.921 223.462 54.087 220.431 57.119 226.599"/>
        <path fill="#9F8A83" d="M295.77 21.506L259.118.343c-.725-.419-1.382-.435-1.896-.153l.003-.024-3.554 2.056s1.573.572 2.499.912v26.695c0 2.172 1.32 4.696 2.948 5.636l35.032 20.23v3.132l3.592-2.069-.02-.007c.608-.371.997-1.182.997-2.351V27.142c0-2.173-1.32-4.695-2.949-5.636"/>
        <path fill="#B3A5A0" d="M292.149 58.717l-36.651-21.165c-1.63-.94-2.95-3.463-2.95-5.635V4.66c0-2.172 1.32-3.171 2.95-2.23l36.651 21.163c1.628.942 2.948 3.464 2.948 5.637v27.258c0 2.171-1.32 3.17-2.948 2.23"/>
        <path fill="#FFFFFE" d="M267.824 28.158c0 1.578-1.108 2.218-2.475 1.429-1.365-.789-2.472-2.707-2.472-4.285 0-1.576 1.107-2.215 2.472-1.427 1.367.79 2.475 2.707 2.475 4.283M275.315 32.486c0 1.577-1.108 2.216-2.473 1.428-1.365-.789-2.474-2.708-2.474-4.285 0-1.578 1.109-2.215 2.474-1.427 1.365.788 2.473 2.705 2.473 4.284M282.806 36.812c0 1.576-1.106 2.215-2.473 1.427-1.365-.788-2.473-2.706-2.473-4.284 0-1.577 1.108-2.216 2.473-1.428 1.367.789 2.473 2.708 2.473 4.285"/>
        <path fill="#0526A0" d="M42.401 253.41L6.445 232.65c-.711-.411-1.355-.428-1.858-.15l.002-.023-3.488 2.014 2.45.897v26.188c0 2.132 1.296 4.608 2.894 5.53l34.368 19.845v3.073l3.524-2.03-.02-.006c.596-.364.978-1.161.978-2.308v-26.74c0-2.13-1.295-4.605-2.894-5.528"/>
        <path fill="#9BA8D9" d="M38.85 289.914L2.894 269.152C1.295 268.23 0 265.754 0 263.623v-26.74c0-2.13 1.295-3.11 2.894-2.187l35.956 20.762c1.598.922 2.893 3.398 2.893 5.53v26.74c0 2.13-1.295 3.11-2.893 2.186"/>
        <path fill="#FFFFFE" d="M14.985 259.938c0 1.547-1.086 2.174-2.426 1.4-1.34-.773-2.426-2.654-2.426-4.202s1.087-2.175 2.426-1.4c1.34.772 2.426 2.654 2.426 4.202M22.335 264.181c0 1.548-1.086 2.176-2.426 1.401-1.34-.773-2.426-2.655-2.426-4.202 0-1.547 1.085-2.175 2.426-1.402 1.34.774 2.426 2.657 2.426 4.203M29.684 268.424c0 1.548-1.086 2.176-2.425 1.403-1.34-.775-2.427-2.657-2.427-4.203 0-1.547 1.086-2.176 2.427-1.402 1.339.774 2.425 2.656 2.425 4.202"/>
    </g>
</svg>
