<svg xmlns="http://www.w3.org/2000/svg" xmlns:xlink="http://www.w3.org/1999/xlink" width="420" height="340" viewBox="0 0 420 340">
    <defs>
        <linearGradient id="prefix__a" x1="56.982%" x2="49.333%" y1="176.566%" y2="37.916%">
            <stop offset="0%" stop-color="#FFF"/>
            <stop offset="100%" stop-color="#FFF"/>
        </linearGradient>
        <linearGradient id="prefix__b" x1="0%" x2="100%" y1="50%" y2="50%">
            <stop offset="0%" stop-color="#0526A0"/>
            <stop offset="100%" stop-color="#E6E9F5"/>
        </linearGradient>
        <linearGradient id="prefix__c" x1="0%" x2="100%" y1="50%" y2="50%">
            <stop offset="0%" stop-color="#0526A0"/>
            <stop offset="100%" stop-color="#E6E9F5"/>
        </linearGradient>
        <linearGradient id="prefix__d" x1="50%" x2="50%" y1="0%" y2="100%">
            <stop offset="0%" stop-color="#0C4ECE"/>
            <stop offset="100%" stop-color="#0526A0"/>
        </linearGradient>
        <linearGradient id="prefix__e" x1="53.394%" x2="47.618%" y1="87.726%" y2="-26.463%">
            <stop offset="0%" stop-color="#0526A0"/>
            <stop offset="100%" stop-color="#E6E9F5"/>
        </linearGradient>
        <linearGradient id="prefix__f" x1="7.865%" x2="48.543%" y1="172.594%" y2="15.495%">
            <stop offset="0%" stop-color="#C8C4C1"/>
            <stop offset="100%" stop-color="#FFF6DE"/>
        </linearGradient>
        <linearGradient id="prefix__g" x1="0%" x2="100%" y1="49.997%" y2="49.997%">
            <stop offset="0%" stop-color="#C8C4C1"/>
            <stop offset="100%" stop-color="#FFF6DE"/>
        </linearGradient>
        <linearGradient id="prefix__h" x1="0%" x2="100%" y1="50%" y2="50%">
            <stop offset="0%" stop-color="#0526A0"/>
            <stop offset="100%" stop-color="#E6E9F5"/>
        </linearGradient>
        <linearGradient id="prefix__i" x1="0%" x2="100%" y1="50%" y2="50%">
            <stop offset="0%" stop-color="#0526A0"/>
            <stop offset="100%" stop-color="#E6E9F5"/>
        </linearGradient>
        <linearGradient id="prefix__j" x1="0%" x2="100%" y1="50%" y2="50%">
            <stop offset="0%" stop-color="#0526A0"/>
            <stop offset="100%" stop-color="#E6E9F5"/>
        </linearGradient>
        <linearGradient id="prefix__k" x1="0%" x2="100%" y1="50%" y2="50%">
            <stop offset="0%" stop-color="#0526A0"/>
            <stop offset="100%" stop-color="#E6E9F5"/>
        </linearGradient>
        <linearGradient id="prefix__l" x1="0%" x2="100%" y1="50%" y2="50%">
            <stop offset="0%" stop-color="#0526A0"/>
            <stop offset="100%" stop-color="#E6E9F5"/>
        </linearGradient>
        <linearGradient id="prefix__n" x1="0%" x2="99.996%" y1="49.986%" y2="49.986%">
            <stop offset="0%" stop-color="#D1D6DF"/>
            <stop offset="100%" stop-color="#EBEBFF"/>
        </linearGradient>
        <linearGradient id="prefix__q" x1="0%" x2="100.011%" y1="49.986%" y2="49.986%">
            <stop offset="0%" stop-color="#D1D6DF"/>
            <stop offset="100%" stop-color="#EBEBFF"/>
        </linearGradient>
        <path id="prefix__m" d="M3.344 6.942L14.166 6.942 10.854 0.072 0.032 0.072 3.344 6.942"/>
        <path id="prefix__p" d="M3.482 6.942L6.06 6.942 2.748 0.072 0.17 0.072 3.482 6.942"/>
    </defs>
    <g fill="none" fill-rule="evenodd">
        <path fill="url(#prefix__a)" d="M245.987 160.336h-82.024c-6.482 0-11.734-5.254-11.734-11.735V66.576c0-6.48 5.252-11.734 11.734-11.734h82.024c6.48 0 11.734 5.254 11.734 11.734v82.025c0 6.48-5.254 11.735-11.734 11.735zm-76.566-40.54h71.106V58.786h-71.106v61.008z"/>
        <path fill="#0526A0" fill-opacity=".5" d="M180.555 138.731L229.395 138.731 229.395 136.318 180.555 136.318zM187.471 146.334L222.477 146.334 222.477 143.921 187.471 143.921z"/>
        <path fill="#FFF" d="M405.631 260.898H288.899c-7.634 0-13.824-6.188-13.824-13.822V105.253c0-7.634 6.19-13.823 13.824-13.823h116.732c7.634 0 13.824 6.189 13.824 13.823v141.823c0 7.634-6.19 13.822-13.824 13.822"/>
        <path fill="#0526A0" d="M340.539 193.526L351.989 193.526 351.989 191.406 340.539 191.406z"/>
        <path fill="#0526A0" fill-opacity=".5" d="M297.065 214.946L363.697 214.946 363.697 210.84 297.065 210.84zM297.065 234.658L350.947 234.658 350.947 230.552 297.065 230.552zM297.065 224.802L328.653 224.802 328.653 220.696 297.065 220.696z"/>
        <path fill="#0526A0" d="M300.285 180.996h-2.074v13.536h14.284v-2.074h-12.21v-11.462zm93.054 0v11.462h-12.21v2.074h14.284v-13.536h-2.074zm-95.128-59.133h2.074v-11.46h12.21v-2.073h-14.284v13.533zm82.918-13.533v2.074h12.21v11.46h2.074V108.33h-14.284zM388.949 212.902c-5.43 0-9.848 4.416-9.848 9.848 0 5.43 4.418 9.848 9.848 9.848 5.43 0 9.848-4.418 9.848-9.848 0-5.432-4.418-9.848-9.848-9.848zm0 22.058c-6.734 0-12.212-5.478-12.212-12.21 0-6.734 5.478-12.212 12.212-12.212 6.732 0 12.21 5.478 12.21 12.212 0 6.732-5.478 12.21-12.21 12.21z"/>
        <path fill="#0526A0" d="M388.169 227.556L382.621 222.008 384.293 220.336 388.169 224.212 393.603 218.778 395.275 220.45 388.169 227.556"/>
        <path fill="url(#prefix__b)" d="M396.291 330.194c0 5.122-88.712 9.274-198.146 9.274C88.713 339.468 0 335.316 0 330.194c0-5.12 88.713-9.272 198.145-9.272 109.434 0 198.146 4.152 198.146 9.272"/>
        <path fill="#0526A0" d="M64.92 303.16c5.92-4.164 12.848-33.178 13.262-50.458.211-8.852 2.828-12.54 5.137-15.794 2.206-3.11 4.112-5.796 3.002-11.964-2.121-11.788 3.457-16.876 3.513-16.926l-.645-.736c-.249.218-6.058 5.466-3.831 17.836 1.037 5.762-.673 8.172-2.838 11.224-2.271 3.2-5.098 7.184-5.317 16.336-.444 18.546-7.527 45.94-12.846 49.68l.563.802"/>
        <path fill="url(#prefix__c)" d="M34.105 249.9c-3.506-1.914-7.266-2.3-8.746-.898-1.124 1.066-.594 2.892.05 4.236 1.226 2.564 2.777 4.146 4.145 5.544 1.903 1.94 3.406 3.474 2.644 6.452-.15.584-.322 1.174-.495 1.766-1.21 4.136-2.351 8.044 3.98 10.89 1.488.668 2.85 1.204 4.053 1.676 5.01 1.966 8.32 3.264 11.868 10.754.66 1.394 1.241 2.71 1.803 3.982 3.062 6.942 4.91 11.132 11.607 9.778 1.919-.388 3.17-1.378 3.716-2.942 1.407-4.022-1.958-11.062-4.929-14.6-.218-.26-5.325-6.488-4.764-15.398.092-1.45.241-2.784.373-3.958.349-3.116.601-5.368-.555-6.666-1.057-1.188-3.37-1.726-7.5-1.746-8.296-.038-11.57-3.468-14.201-6.222-1.053-1.104-1.962-2.056-3.049-2.648zm18.406 44.798c-.559-1.268-1.137-2.578-1.792-3.96-3.382-7.138-6.377-8.314-11.34-10.262-1.213-.476-2.588-1.016-4.097-1.692-7.11-3.196-5.733-7.904-4.518-12.058.17-.582.339-1.162.486-1.734.625-2.444-.576-3.67-2.395-5.526-1.351-1.378-3.033-3.094-4.33-5.806-1.42-2.966-.696-4.556.16-5.368 1.805-1.71 5.963-1.396 9.89.748 1.22.666 2.224 1.718 3.287 2.832 2.503 2.62 5.618 5.882 13.497 5.92 4.492.02 6.953.64 8.228 2.072 1.446 1.626 1.173 4.058.796 7.426-.13 1.164-.279 2.486-.368 3.912-.536 8.508 4.487 14.648 4.537 14.708 3.001 3.574 6.698 10.988 5.102 15.55-.668 1.914-2.165 3.118-4.446 3.58-.91.184-1.74.27-2.503.27-5.511 0-7.528-4.57-10.194-10.612z"/>
        <path fill="#0526A0" d="M65.102 310.962l.978-.05c-.048-.92-1.282-22.572-9.976-28.908-9.537-6.952-12.544-14.424-13.977-19.44-1.687-5.908-10.277-7.488-10.641-7.552l-.17.964c.083.016 8.351 1.538 9.87 6.858 1.472 5.154 4.56 12.83 14.342 19.96 8.32 6.066 9.562 27.948 9.574 28.168"/>
        <path fill="url(#prefix__d)" d="M93.403 278.146c6.544-4.306 3.6-9.004.191-14.446-2.68-4.28-5.72-9.13-3.934-14.23 2.088-5.96 5.182-9.584 7.913-12.78 4.574-5.354 7.596-8.892 1.548-19.578-5.123-9.05-.083-16.81 3.966-23.046 2.486-3.826 4.632-7.132 3.884-9.788-.418-1.484-1.74-2.742-4.046-3.844-.468-.226-.948-.224-1.466.002-3.46 1.506-6.635 11.548-6.667 11.65l-.025.08-.052.068c-3.593 4.748-7.815 4.44-11.208 4.19-2.027-.148-3.628-.266-4.594.696-.95.946-1.3 3.018-1.07 6.336.878 12.698-6.192 15.286-11.873 17.364-3.191 1.168-5.948 2.178-6.892 4.664-1.007 2.654.089 6.792 3.448 13.022 8.02 14.872 3.53 18.412-.81 21.836-3.631 2.864-7.061 5.568-2.989 15.366 4.18 10.058 3.983 20.906 3.84 28.828-.098 5.406-.175 9.676 1.317 10.42.873.434 2.543-.3 4.965-2.184.971-2.11 12.455-26.666 24.554-34.626zm-29.956 37.686c-2.045-1.018-1.971-5.114-1.859-11.314.142-7.834.336-18.564-3.765-28.434-4.357-10.484-.471-13.548 3.286-16.51 4.21-3.32 8.184-6.454.555-20.604-3.504-6.498-4.617-10.894-3.501-13.834 1.102-2.904 4.196-4.036 7.47-5.234 5.653-2.07 12.06-4.414 11.232-16.378-.253-3.668.178-5.924 1.357-7.098 1.282-1.276 3.17-1.138 5.357-.978 3.303.242 7.045.516 10.305-3.738.339-1.062 3.455-10.548 7.183-12.172.784-.342 1.55-.338 2.28.012 2.574 1.232 4.068 2.69 4.566 4.464.868 3.082-1.39 6.558-4.004 10.584-4.11 6.328-8.767 13.498-3.936 22.032 6.386 11.282 3.012 15.232-1.656 20.696-2.674 3.132-5.706 6.68-7.732 12.468-1.63 4.656 1.15 9.094 3.839 13.386 3.373 5.384 6.861 10.952-.483 15.784-12.141 7.988-24.131 34.062-24.251 34.324l-.05.108-.094.074c-2.236 1.754-3.865 2.59-5.09 2.59-.372 0-.706-.076-1.009-.228z"/>
        <path fill="url(#prefix__e)" d="M44.283 202.184c6.18-2.118 4.896 9.792 7.506 18.604 2.611 8.812 29.047 3.844 17.95 25.91-11.096 22.066 14.034 7.378 6.528 26.634-7.506 19.256-.653 39.85-8.812 34.612-8.159-5.238-4.584-29.486-13.07-32.368-8.485-2.882-9.87-6.242-1.468-14.074 8.402-7.834-22.015-15.61-14.508-31.426 7.506-15.816-1.265-25.444 5.874-27.892"/>
        <path fill="#FFF" d="M64.611 306.678c.777-3.296 7.413-32.304 1.221-35.812-5.457-3.09-5.323-15.11-4.471-26.462.753-10.048-12.152-14.744-12.702-14.94l-.327.924c.128.044 12.75 4.642 12.052 13.942-.874 11.658-.968 24.028 4.966 27.388 4.701 2.664.373 25.978-1.692 34.736l.953.224"/>
        <path fill="url(#prefix__f)" d="M87.925 296.35L79.102 329.82 59.387 329.82 50.564 296.35 87.925 296.35"/>
        <path fill="url(#prefix__g)" d="M87.925 296.35s-19.422 3.646-19.422 33.47h-9.116l-8.823-33.47h37.36"/>
        <path fill="#FFF" d="M335.943 85.58h-58.212c-5.328 0-9.648-4.318-9.648-9.646v-50.51c0-5.328 4.32-9.647 9.648-9.647h58.212c5.328 0 9.646 4.319 9.646 9.646v50.51c0 5.329-4.318 9.647-9.646 9.647"/>
        <path fill="#0526A0" d="M303.469 73.517L309.615 73.517 309.615 72.378 303.469 72.378zM281.859 67.417h-1.112v7.267h7.668v-1.113h-6.556v-6.154zm49.954 0v6.154h-6.554v1.113h7.668v-7.267h-1.114zm-51.066-31.743h1.112v-6.152h6.556V28.41h-7.668v7.265zm44.512-7.265v1.113h6.554v6.152h1.114v-7.265h-7.668zM200.869 126.052L209.081 126.052 209.081 124.531 200.869 124.531zM171.613 117.904h-1.486v9.707h10.242v-1.487h-8.756v-8.22zm66.724 0v8.22h-8.756v1.487h10.242v-9.707h-1.486zm-68.21-42.4h1.486v-8.216h8.756V65.8h-10.242v9.704zm59.454-9.703v1.487h8.756v8.217h1.486V65.8h-10.242z"/>
        <path fill="#FF6800" fill-opacity=".6" d="M390.867 172.466h-13.698c-.902-6.558-2.008-14.044-2.008-14.044s-.554 6.178-1.228 14.044h-54.808c-.5-7.074-1.102-12.366-1.32-12.474-.314-.158-2.27 6.118-3.892 12.474h-14.838c3.816-16.438 10.934-42.812 15.05-44.391 5.856-2.253 29.744-9.615 29.744-9.615h13.632s24.222 6.911 26.476 14.425c1.792 5.988 5.744 25.733 6.89 39.58"/>
        <path fill="#EEA987" d="M351.311 74.238s12.728 2.005 10.79 21.92c-1.938 19.915-13.172 18.283-13.922 18.263-.752-.02-11.278.363-12.098-23.952 0 0-.36-17.98 15.23-16.231"/>
        <path fill="#EEA987" d="M357.253 108.555s-.35 8.191.444 9.965c.792 1.773-10.504 7.469-17.394 1.121 0 0 1.664-8.902 1.202-12.057-.464-3.155 15.748.971 15.748.971M362.299 90.533s1.394-1.489 1.904.018c.512 1.507-2.162 8.242-1.986 8.544 0 0-.256.585-.59.263-.334-.322.672-8.825.672-8.825M336.223 90.281s-1.364-1.516-1.904-.019c-.54 1.498 2.002 8.282 1.822 8.581 0 0 .244.59.584.274.34-.315-.502-8.836-.502-8.836"/>
        <path fill="#D98B52" d="M362.293 93.587l-1.822 2.437s.05-5.341-.242-6.179c-.292-.837-.74-3.396-.984-3.999-.244-.603-10.93-3.598-20.37.874 0 0 .416 3.841-.488 4.183-.906.342-.462 6.255-.462 6.255l-1.498-1.69s-2.294-15.323-1.728-16.92c.568-1.597 2.372-11.198 21.736-5.498 0 0 6.038-1.279 7.25 2.89 1.212 4.167-1.392 17.647-1.392 17.647"/>
        <path fill="#EEA987" d="M357.697 118.52s2.872.612-9.146 12.13c0 0-8.524-9.43-8.248-11.009.276-1.579 17.394-1.121 17.394-1.121"/>
        <path fill="#FF6800" d="M348.551 130.649L351.831 136.258 361.559 119.739 357.345 116.8 348.551 130.649M348.551 130.649L340.591 117.985 336.079 120.885 344.169 136.258 348.551 130.649"/>
        <path fill="#FF6800" d="M346.083 165.734c.098 1.868.142 4.16.148 6.732h-.452c-.004-2.562-.048-4.848-.146-6.71-.738-14.05 2.666-31.145 2.688-35.152l.44.087c-.022 4.007-3.416 21.053-2.678 35.043"/>
        <path fill="#C78D71" d="M342.689 112.077s3.024 3.197 7.296 2.345c4.272-.853 6.168-2.809 6.168-2.809s-1.686 4.229-6.624 4.616c-4.94.387-6.84-4.152-6.84-4.152"/>
        <path fill="#EEA886" d="M193.933 59.12c-.028 0-.056.002-.084.007-.174.037-.308.194-.398.468-.314.956.544 3.608.868 4.606.062.193.106.333.128.408.21.66.586 1.61.754 1.65l.016-.005c.158-.216-.208-4.192-.478-6.661-.07-.075-.458-.474-.806-.474zm1.272 7.245l-.028-.004c-.288-.07-.742-1.446-.832-1.722-.02-.075-.064-.214-.126-.405-.358-1.102-1.192-3.683-.866-4.672.102-.312.262-.493.476-.537.456-.095.978.485 1 .51l.012.013.002.016c.118 1.086.698 6.515.448 6.764-.024.024-.054.037-.086.037z"/>
        <path fill="#16202E" d="M204.667 44.721s7.008-.734 9.532 6.032c2.524 6.767 4.902 8.982 5.2 12.536 1.202 14.378 7.916 11.126 6.028 19.413-1.888 8.288-3.196 9.541-3.196 9.541l-16.052-3.147-16.26.053s6.362-3.177 4.946-9.944c-1.416-6.766-4.946-17.856-2.952-25.41 1.992-7.553 8.568-8.497 12.754-9.074"/>
        <path fill="#EEA886" d="M213.691 59.593c-.27 2.469-.636 6.445-.476 6.662l.014.004c.168-.04.544-.99.756-1.652.02-.073.064-.213.126-.406.324-.998 1.182-3.65.868-4.606-.092-.274-.224-.431-.398-.468-.364-.075-.814.385-.89.466zm-.466 6.772c-.032 0-.06-.013-.086-.037-.25-.25.33-5.678.448-6.764l.002-.016.012-.013c.022-.025.544-.606 1-.51.214.044.374.225.476.537.326.989-.508 3.57-.866 4.672-.062.191-.106.33-.126.403-.09.278-.544 1.655-.832 1.724l-.028.004z"/>
        <path fill="#FFA466" d="M237.611 109.365h-10.002c-2.074-3.78-3.758-6.737-3.758-6.737s-1.348 2.46-2.394 6.737h-33.672c-.514-2.668-.544-5.225-.438-7.046 0 0-1.798 3.252-3.886 7.046h-11.312c3-5.621 8.626-15.856 9.904-17.19 1.606-1.682 10.91-8.113 17.552-10.211 6.646-2.098 10.422-.073 10.422-.073s6.824 1.23 13.132 3.731c2.48.983 9.332 13.636 14.452 23.743"/>
        <path fill="#8E4F3A" d="M205.591 48.679s9.28 1.339 7.922 15.037c-1.358 13.699-9.548 12.612-10.096 12.6-.546-.012-8.216.285-8.88-16.43 0 0-.308-12.361 11.054-11.207"/>
        <path fill="#8E4F3A" d="M209.715 73.886s-.574 7.126.798 9.26c1.372 2.135-1.174 5.033-6.42 4.041-5.246-.99-4.942-3.964-4.942-3.964s1.47-4.398 1.04-7.917c-.43-3.52 9.524-1.42 9.524-1.42"/>
        <path fill="#16202E" d="M204.531 53.643s4.336 4.559 6.348 6.866c2.014 2.308 2.246 6.767 2.246 6.767s3.392-4.144 1.974-8.97c-1.418-4.825-4.776-14.214-13.272-11.33-8.498 2.886-8.812 15.58-7.816 21.873 0 0 3.814-13.894 10.52-15.206"/>
        <path fill="#8E4F3A" d="M212.973 82.517s-6.436 16.3-10.348 19.132c0 0-5.136-16.624-4.778-19.057 0 0 7.75-3.037 15.126-.075"/>
        <path fill="#16202E" d="M199.373 78.576s-11.472 10.207-8.494 16.575c2.54 5.435 11.55 2.102 10.064-3.593-1.486-5.695-1.57-12.982-1.57-12.982"/>
        <path fill="#633029" d="M200.873 75.695s3.954 1.869 7.802-.891c0 0-1.068 2.207-3.9 2.52-2.832.315-3.902-1.629-3.902-1.629"/>
        <path fill="#0526A0" d="M302.695 37.991s-3.806 14.319-4.598 17.545c-.238.972-1 2.652-1.968 4.568l-.024.044c-.208.421-.308.804-.356 1.164-.154 1.194.304 2.134-.49 3.55l-.142.596h-7.532c.88-2.61 1.996-5.932 2.888-8.608.75-2.258 1.342-4.055 1.498-4.575.466-1.553 2.174-6.582 3.624-9.922.506-1.163 2.456-2.313 4.184-3.144 1.546-.736 2.916-1.218 2.916-1.218"/>
        <path fill="#FCCCA2" d="M297.657 17.538s-2.402-15.53 10.46-15.244c12.862.287 12.692 7.966 12.462 15.588-.23 7.621-5.158 7.048.4 17.65 5.56 10.601-4.812 10.601-4.812 10.601l-8.05-11.06-10.46-17.535"/>
        <path fill="#EEA886" d="M306.711 3.784s-8.71 1.376-9.054 13.754c-.344 12.378 2.348 15.014 9.97 12.435 7.622-2.579 10.03-15.53 10.202-17.536.17-2.005.63-10.143-11.118-8.653"/>
        <path fill="#FF6800" d="M322.01 46.839c.029 4.26-4.867 14.448-5.623 17.596-.088.366-.184.705-.28 1.023h-23.772c-.124-1.468-.24-2.723-.298-3.431-.188-2.327-2.546-7.34-2.468-9.673.082-2.378 1.25-4.43 2.882-6.97.506-.786 1.04-1.587 1.57-2.367 1.732-2.539 3.46-4.845 4.308-5.638.632-.589 1.22-1.04 1.734-1.383l.004-.003c1.068-.712 1.786-.941 1.786-.941l7.486-1.198s4.666 1.69 7.352 2.317c0 0 5.238.766 5.318 10.668"/>
        <path fill="#E55353" d="M300.069 35.993l-8.346 13.15c.01-.033.276-.989.728-3.757.088-.525.18-1.116.278-1.778.03-.195.072-.39.126-.582 1.714-3.952 7.014-6.932 7.208-7.03l.006-.003"/>
        <path fill="#EEA886" d="M312.527 24.398c-.754 1.425-1.552 10.276-1.552 10.276s-10.654 4.027-9.562 1.749c.494-1.034.638-2.375.648-3.531.01-.912-.064-1.709-.118-2.15-.026-.233-.048-.367-.048-.367s11.388-7.404 10.632-5.977"/>
        <path fill="#FCCCA2" d="M303.157 12.667s4.47 7.278 8.54 10.143c4.068 2.865 2.004 5.157 2.004 5.157s10.616-22.349.524-23.896c-10.092-1.547-16.282-1.662-16.568 13.467 0 0 4.584-4.986 5.5-4.871"/>
        <path fill="#A77860" d="M308.019 29.83c-1.636 2.412-5.956 3.062-5.956 3.062h-.002c.01-.912-.064-1.709-.118-2.15 2.776.535 6.076-.912 6.076-.912"/>
        <path fill="#EBEEFF" d="M292.873 42.98v-.001s-.232.48-.422 2.407l1.57-2.368s2.802-4.018 3.762-5.063c.962-1.045 2.28-1.96 2.28-1.96s-5.514 2.65-7.19 6.984"/>
        <path fill="#E55353" d="M314.073 48.971s6.838-2.682 8.862-2.838c0 0-1.376-10.98-8.092-9.817-6.718 1.164-.77 12.655-.77 12.655"/>
        <path fill="#EEA886" d="M301.853 35.051s-5.02 7.72-3.322 8.394c1.7.674 10.898-.9 14.81-8.232 0 0-5.848-2.998-11.488-.162"/>
        <path fill="#0526A0" d="M322.935 46.134c-.348 6.053-2.066 11.794-3.482 17.063-.206.763-.404 1.519-.588 2.261h-13.922c-.034-2.087-.028-3.928.036-5.464.702-16.799 6.026-25.633 6.026-25.633s1.7.571 6.594 1.957c3.352.948 4.618 5.214 5.08 7.8 0 0 .004.011.006.032.206 1.166.25 1.984.25 1.984M301.849 35.055c-.054.096-.972 1.636-2.07 4.154-1.648 3.78-3.708 9.768-3.882 16.365-.056 2.118-.476 5.55-1.116 9.884h-2.778c-.282-3.627-.944-6.524-1.53-8.608-.38-1.352-.728-2.361-.916-3-.888-3.015 1.946-7.028 2.894-8.465.95-1.434 3.222-8.03 9.398-10.33"/>
        <path fill="#0526A0" d="M327.369 65.458h-7.476c0-.486-.166-1.28-.44-2.261-1.358-4.828-5.378-14.227-5.378-14.227s-6.016-9.83-.316-12.334c5.7-2.504 8.154 4.496 8.92 7.483 0 0 .004.01.006.03.19.716 3.584 13.655 4.684 21.31"/>
        <path fill="#EEA886" d="M205.445 205.61s2.614-.036 3.544-1.042c.93-1.008 2.572-1.91 3.1-2.166.704-.342 2.652-2.238 2.898-1.312.244.924-3.104 3.272-3.742 3.906-.636.634 2.782.91 3.284 1.526.502.614-1.244 7.084-3.522 6.582-2.278-.5-4.144-2.798-4.574-2.794-.432.006-1.684-.288-1.684-.288l.696-4.412"/>
        <path fill="#EEA886" d="M214.045 206.258s6.8 2.076 7.08 2.664c.28.59.09 1.02-.558.856-.648-.162-6.656-1.78-6.656-1.78s7.43 4.064 7.766 4.47c.196.238-.13 1.088-.49 1.038-.36-.05-8.012-3.558-8.012-3.558s6.932 3.808 7.104 4.262c.152.396-.314 1.126-.852.886-.536-.238-7.216-3.328-7.216-3.328s4.83 3.164 4.754 3.684c-.046.318-.298 1.062-1.514.196-1.216-.864-4.334-2.524-4.334-2.524l2.928-6.866"/>
        <path fill="#353A3D" d="M191.141 320.328s2.182 3.264 5.242 3.97c3.06.704 6.074 1.826 6.096 3.758.024 1.93-8.846 3.082-12.348 1.136-5.226-2.906-5.758-2.03-6.338-3.482-.578-1.452.696-5.336.658-5.798-.046-.572 6.69.416 6.69.416"/>
        <path fill="#81807E" d="M190.801 318.718s.398 1.578.34 1.61c-.06.034-6.896.848-6.69-.416.168-1.026.408-2.142.408-2.142l5.942.948"/>
        <path fill="#353A3D" d="M148.211 320.112s1.556 3.122 4.214 4.186c2.842 1.136 5.122 2.444 5.07 4.324-.052 1.882-6.948 3.788-11.964.178-3.17-2.282-4.174-2.292-4.684-3.73-.508-1.436.884-5.17.864-5.622-.022-.556 6.5.664 6.5.664"/>
        <path fill="#81807E" d="M148.289 318.492s-.02 1.59-.078 1.62c-.06.03-6.668.574-6.5-.664.134-.982.642-2.17.642-2.17l5.936 1.214"/>
        <path fill="#2D3133" d="M172.515 223.118s8.678 33.248 11.984 40.934c3.06 7.122 4.07 17.082 4.492 22.084.53 6.29 3.686 30.792 4.058 32.632.37 1.84-10.21 1.016-10.21 1.016s-7.294-42.362-10.324-48.544c-2.02-4.124-13.748-33.71-15.09-32.006-1.342 1.704-3.006 31.346-4 36.268-.994 4.92-4.046 43.8-4.046 43.8s-6.82 1.008-8.642-.534c0 0-.83-33.2-.198-42.426.242-3.516-4.118-42.156 1.474-57.71 2.954-8.222 30.502 4.486 30.502 4.486"/>
        <path fill="#FFF" d="M124.175 199.276c0 .38.718 1.9 1.866 4.088 1.676-3.352 2.992-6.106 3.422-7.118 1.412-3.336 8.692-10.982 8.692-10.982l.002.016.002.01.002.008.01.032c.004.018.01.04.018.064l.01.042.008.03c.396 1.476 2.83 10.704 2.92 15.25.098 4.948 1.39 14.104 1.39 14.104l.004.002 1.52.212 3.364.474.402.056.978.138 8.918 1.254 3.162.446.428.06 1.808.254 4.992.702 1.274.178.01.002.954.134 1.318.186.002-.002c.036-.048 1.282-1.754 1.09-5.544-.122-2.446-.418-7.042-.294-11.306l.002-.066c0-.054.002-.106.004-.16.002-.02.002-.036.002-.054v-.01c.078-2.344.284-4.564.722-6.25.294-1.142.49-2.274.62-3.332l.018-.154c.024-.198.044-.392.062-.584.284-2.956.062-5.208.048-5.34l.004.01c.09.198.742 2.582 1.594 5.528 1.442 4.978 3.462 11.554 4.322 11.87 1.25.462 21.51 6.462 25.886 7.076.506.072.8.07.828-.018l.06-.198c.532-1.754 1.262-4.732 1.38-5.212l.016-.068-.784-.234-22.044-6.608-10.078-29.06c-.21-.168-2.686-1.366-4.494-2.226-1.842-.878-4.064-2.166-6.076-3.268-1.028-.562-1.998-1.074-2.838-1.46l-.128-.058v-.002l-2.31-1.054h-.006c-.032-.004-.25-.026-.602-.058-1.936-.184-7.95-.748-9.966-.866-.166-.01-.306-.016-.412-.018-.094-.004-.162-.004-.204-.002-.256.016-1.494.448-3.124 1.068h-.002c-.062.024-.122.046-.186.072l-.23.086-.432.166-.894.352-.318.124c-3.262 1.296-6.996 2.894-7.886 3.532-.584.42-2.412 3.864-4.53 8.122-2.728 8.738-6.186 22.116-6.294 25.414l-.002.15"/>
        <path fill="#495055" d="M171.651 218.916s.67.804.864 4.202c0 0-27.586-3.218-30.502-4.486 0 0-.114-3.746.504-3.812.68-.07 29.134 4.096 29.134 4.096"/>
        <path fill="#EEA886" d="M148.125 159.254c.086 4.33 8.468 6.698 8.468 6.698s3.506-4.396 2.67-4.816c-.33-.166-.464-.822-.504-1.558-.038-.7.006-1.474.048-1.964.024-.306.048-.502.048-.502s-1.198-1.264-2.722-2.77c-2.662-2.633-6.322-6.006-6.328-4.664 0 .07.01.156.03.254.644 3.02-1.71 9.322-1.71 9.322"/>
        <path fill="#353A3D" d="M148.821 215.484s-.604 3.798-.656 4.788l-1.276-.256s.352-4.016.558-4.69l1.374.158M169.349 218.474s.484 3.45.494 4.754l-1.35-.176s-.276-4.31-.43-4.76l1.286.182"/>
        <path fill="#A77860" d="M151.353 152.91c.018.026.372.558.98 1.321 1.286 1.619 3.706 4.279 6.426 5.347-.038-.7.006-1.474.048-1.964.278-.006.556-.038.832-.1-.746-1.302-1.822-2.67-1.822-2.67l-1.684-.503-4.78-1.43"/>
        <path fill="#EEA886" d="M149.745 149.736c.724 1.578 1.412 2.721 1.608 3.174.128.296.474.777.98 1.321 1.382 1.489 3.95 3.453 6.474 3.383.278-.006.556-.038.832-.1 1.02-.222 2.222-.696 2.886-1.993 5.228-10.24 1.442-18.613 1.442-18.613s-14.3-4.043-16.536.262c-1.57 3.019.61 8.86 2.314 12.566"/>
        <path fill="#252E3B" d="M163.967 136.908s1.328-.073 1.658-2.59c.324-2.489-.332-3.178-.332-3.178s-5.904-2.471-8.024-2.792c-2.12-.322-7.332-.63-8.554.767 0 0-2.97-.69-3.778 4.239-1.284 7.818 4.372 15.41 4.372 15.41s-.048-5.108 1.078-5.785c1.126-.676 2.1.933 2.1.933l2.304.413s-3.5-7.557.698-7.837c4.198-.28 6.076.859 8.478.42"/>
        <path fill="#EEA886" d="M152.423 141.876c-.22-2.25-4.29-3.11-4.016-.75.272 2.358 2.276 4.624 3.202 4.544.926-.08.98-2.079.814-3.794"/>
        <path fill="#3C4145" d="M139.449 201.72c0 1.642-.534 3.522-1.354 5.526l-.064.152c-.564-1.208-1.098-2.364-1.576-3.434l-.002-.006c-1.312-2.94-2.214-5.232-2.264-6.14-.324-5.828 3.968-12.538 3.968-12.538l.002.01.002.008.01.032.018.064.01.042.008.03c.88 3.464 1.242 16.254 1.242 16.254zm-13.408 1.644c1.772 3.382 4.568 8.358 7.33 13.184-.362.678-.718 1.35-1.058 2.016-.832 1.624-1.568 3.198-2.092 4.664-.63 1.764-1.504 6.28.17 7.12l8.826 4.87.178-.492c.292-.792.926-2.488 1.804-4.684.028-.07.116-.28.248-.588.176-.414.428-1.006.718-1.68l.406-.95.492-1.144c.24-.558.478-1.116.7-1.63.602-1.402 1.072-2.492 1.072-2.492l.09-.194c.286-.622.582-1.244.88-1.866.464-.962.942-1.92 1.43-2.858l.148-.284c.088-.164.174-.33.262-.492l.162-.3.036-.066.066-.118c2.552-4.654 5.426-8.546 6.342-14.252.088-.552.172-1.098.252-1.642.132-.906.256-1.8.366-2.678.042-.33.084-.658.124-.984.458-3.808.732-7.2.954-9.562.69-7.362-3.818-15.332-7.28-20.256-1.852-2.634-3.402-4.396-3.702-4.73l-.018-.018c-.062.024-.122.046-.186.072l-.23.086-.432.166-.894.352-.318.124c-3.352 1.316-10.412 3.258-11.3 3.894-.512.366-1.66 3.726-2.984 7.97-2.728 8.738-4.346 21.914-4.426 25.204l-.002.15c0 .38.718 1.9 1.866 4.088z"/>
        <path fill="#B3A5A0" d="M156.211 223.684l-25.154 11.196c-1.422.632-3.09-.008-3.724-1.43l-6.886-15.472c-.632-1.422.008-3.09 1.43-3.724l25.154-11.196c1.424-.634 3.09.008 3.724 1.43l6.886 15.472c.634 1.422-.006 3.09-1.43 3.724"/>
        <path fill="#3C4145" d="M161.635 162.3s1.18 3.928 2.706 13.73l.002.004c.052.33.102.664.154 1.008l.018.118c.034.226.07.456.104.69l.012.082c.024.156.048.312.07.472.058.388.114.782.172 1.184.68 4.772 1.636 12.892 2.554 21.09v.004c.724 6.462 2.378 13.092 2.902 18.042l.002.008c.104.97.352 2.262.686 3.72.038.166.078.332.116.502 1.48 6.246 4.35 15.086 4.35 15.086l.836-.772 2.474-2.286c.572-.524.786-1.33.558-2.07-1.374-4.43-6.04-20.104-6.896-31.126v-.01c.42-3.874 1.492-9.07 1.332-9.818.01.028.02.054.028.082.492 1.366 1.036 2.852 1.586 4.298v.002c1.472 3.882 2.98 7.482 3.606 7.712 1.398.514 26.478 7.912 26.66 6.88.018-.104.04-.214.064-.332.022-.114.048-.236.074-.362.31-1.414.872-3.44 1.264-4.81.06-.202.114-.39.162-.558l.272-.928-21.21-6.96-10.702-27.988c-.21-.166-2.94-1.636-4.748-2.496-1.884-.896-4.266-2.002-6.378-2.978-1.01-.466-1.96-.902-2.764-1.272l-.066.052"/>
        <path fill="#51565C" d="M147.275 172.002l4.078 2.3-1.742 1.778 4.64 25.048c.946-5.87 1.376-11.446 1.696-14.866 1.068-11.38-10.292-24.218-10.998-25.004-.546.206-1.136.434-1.744.676l4.07 10.068M161.573 162.19s1.524 4.976 3.3 17.398c.68 4.772 1.636 12.894 2.554 21.09l.95-23.458-1.944-2.106 1.728-2.158-3.696-9.436c-1.01-.466-1.96-.904-2.764-1.272l-.128-.058"/>
        <path fill="#F7F4F2" d="M144.721 161.344l3.404-2.09s.094 1.854 8.468 6.698l-2.378 6.698-9.494-11.306M158.821 160.188s-.132 2.002-2.228 5.764l4.642 6.05.338-9.812-2.752-2.002"/>
        <path fill="#FF6800" d="M156.581 165.952s-.9 3.598-.576 4.606c0 0 1.978.718 3.4-.18 0 0-1.008-2.52-2.824-4.426"/>
        <path fill="#AD9F99" d="M161.231 217.84c.502-2.538.024-10.144.004-10.466l-.432.026c.006.078.496 7.874.004 10.356l.424.084"/>
        <path fill="#69737A" d="M157.709 216.67s4.058.484 5.402.82l-.176 4.55-5.316-.568.09-4.802"/>
        <path fill="#FF6800" d="M158.597 170.054s4.528 11.432 3.788 24.23c-.764 13.268-2.02 18.078-2.02 18.078l-2.792 3.5-1.232-4.302s3.746-16.916 1.328-33.376c-.438-2.982-1.088-8.634-1.088-8.634l2.016.504"/>
        <path fill="#EEA886" d="M144.993 224.046s.972 1.944 1.944 2.266c.97.324 2.388 1.904 2.388 1.904l-6.842 3.602s-1.82-3.562-1.902-5.828c-.08-2.268 4.412-1.944 4.412-1.944"/>
        <path fill="#DECBC4" d="M145.643 224.228l.452.912s-4.344 3.176-5.514 3.378l-.402-1.214 5.464-3.076"/>
        <path fill="#3C4145" d="M146.095 224.268s-3.254 2.692-5.998 3.934l-12.29-21.55 7.844-4.29s10.228 20.288 10.444 21.906"/>
        <path fill="#2D3133" d="M173.657 186.16c.152 3.07.13 5.796.13 5.796v.002l.01.236.018-.154c.492 1.366 1.036 2.852 1.586 4.298.128-1.676.16-3.238.122-4.684-.22-8.61-2.926-13.124-2.926-13.124.62 1.5.918 4.72 1.06 7.63"/>
        <path fill="#EEA886" d="M280.453 157.778s-.128-1.582.058-2.32c.322-1.275-.152-3.34 1.452-4.342 1.604-1.002 6.214 3.194 6.576 4.366.364 1.172-1.36 3.17-4.966 4.848-3.604 1.678-3.12-2.552-3.12-2.552"/>
        <path fill="#EEA886" d="M281.473 151.532s1.556-2.343 3.61-4.736c1.804-2.1 4.334-4.454 4.868-4.007.81.68-1.486 2.372-3.132 4.574-1.514 2.028-.872 1.884-.872 1.884s-.184.031 1.902-1.855c2.242-2.027 4.736-4.111 5.18-3.753.552.443.582.545-.11 1.415.508-.414.694-.333.89-.137 1.01 1.014-1.816 4.51-2.938 5.898.868-1.061 1.622-1.746 1.838-.726.248 1.167-3.972 5.929-5.318 7.779-1.468 2.02-5.918-6.336-5.918-6.336"/>
        <path fill="#181929" d="M227.545 319.736s4.388 2.594 6.374 3.558c1.986.964 9.704 1.24 10.468 1.964.762.726.482 3.032-.796 3.268-1.28.236-10.662 1.084-13.792.352-3.13-.732-8.984.5-10.28.06-1.298-.44-.46-7.43.04-8.998.502-1.57 7.986-.204 7.986-.204"/>
        <path fill="#22243B" d="M227.909 316.878l-.364 2.858s-5.866 1.096-7.644.192l.44-2.968 7.568-.082"/>
        <path fill="#292C47" d="M251.441 219.266c-.062 1.978-.424 6.272-.842 10.782-.094 1-.192 2.014-.29 3.014-.584 6.068-1.176 11.68-1.176 11.68-.74 4.83-2.268 13.216-3.976 19.558-.494 1.83-1 3.49-1.508 4.844-.496 1.318-.992 2.348-1.474 2.964-3.636 4.644-11.97 45.808-11.97 45.808l-11.376-.086s2.502-27.874 5.016-34.94c2.806-7.892 7.68-18.526 6.47-26.136-.758-4.776-1.734-19.978-1.734-19.978s-.952-17.082 3.516-29.594c1.116-3.126 19.344 12.084 19.344 12.084"/>
        <path fill="#181929" d="M259.515 320.804s4.356 2.648 6.33 3.636c1.976.986 9.69 1.356 10.444 2.09.754.734.448 3.036-.834 3.258-1.282.22-10.674.956-13.796.186-3.12-.77-8.988.392-10.28-.064-1.292-.456-.37-7.434.148-8.998.52-1.562 7.988-.108 7.988-.108"/>
        <path fill="#22243B" d="M259.915 317.952l-.4 2.852s-5.878 1.028-7.644.102l.476-2.964 7.568.01"/>
        <path fill="#292C47" d="M246.315 277.132c-.296-9.104-1.1-15.152-3.442-20.412-1.968-4.418-3.652-18.288-3.652-18.288s-5.332-16.256-4.25-29.498c.27-3.308 20.878 5.008 20.878 5.008.452 1.928 1.83 7.996 2.32 12.496 2.79 25.714 1.746 42.464 1.746 42.464-1.594 5.678 2.432 50.35 2.432 50.35h-11.6s-3.04-15.892-3.36-25.774c0 0-1.186-14.772-1.072-16.346"/>
        <path fill="#FFF" d="M246.057 159.324s5.404 8.862 6.984 13.806c1.58 4.944.308 19.318.586 22.208.866 8.964 2.128 18.832 2.128 18.832l-18.118 11.574s-3.252-7.596-6.088-17.054c-2.836-9.458-3.064-17.974-3.038-23.664.084-17.848 9.73-27.926 9.73-27.926l7.816 2.224"/>
        <path fill="#EEA886" d="M252.715 135.559s3.716 3.976 2.666 5.021c-.866.864 2.548 4.826 3.034 5.492.486.667-1.516 1.77-1.846 2.367-.33.598-.136 6.834-1.854 7.475-1.72.642-10.404-.036-13.162-1.721-2.758-1.684-7.206-11.392-6.888-16.064.32-4.671 11.516-9.504 18.05-2.57"/>
        <path fill="#EEA886" d="M249.203 154.566s-.064.53-.15 1.352c-.032.344-.074.736-.11 1.166-.022.254-.044.524-.07.8-.004.074-.016.148-.02.222-.012.128-.022.254-.032.388-.042.598-.086 1.218-.118 1.832-.078 1.586-.09 3.1.08 3.944.456 2.31-9.496-7.44-9.496-7.44s.844-7.563.436-16.062c-.414-8.5 9.48 13.798 9.48 13.798"/>
        <path fill="#3A3F47" d="M253.477 136.431s1.758-4.146-3.662-7.024c-6.38-3.388-13.146 5.12-14.044 5.62-.896.501-4.976 5.092-.984 11.178 5.038 7.679 4.772 7.421 4.772 7.421s.504-5.664.472-6.757c-.06-1.998 5.18-2.235 5.18-2.235s-2.152-2.865.24-4.15c2.392-1.285 5.192-4.333 8.026-4.053"/>
        <path fill="#EEA886" d="M242.459 143.909c-.382-.536-1.782-2.903-3.582-.824-1.8 2.078 3.028 5.963 3.428 5.925.398-.038 3.364-.591.154-5.101"/>
        <path fill="#23263D" d="M256.743 217.99s-.9-4.24-1.076-4.874l-26.496 4.41.272 3.424s19.09-1.142 27.3-2.96"/>
        <path fill="#FFA466" d="M226.813 199.316s4.07 17.578-2.304 38.086c-.778 2.504 17.646-.39 17.646-.39l-15.342-37.696"/>
        <path fill="#FFA466" d="M250.217 235.726s-13.086 2.872-16.762 1.572c0 0-5.348-19.456-7.214-39.204-.144-1.526-.268-3.054-.366-4.572v-.002c-1.04-16.066 3.048-32.366 12.366-36.418.262.176 13.386 11.746 13.136 22.336-.018.718-.028 1.438-.032 2.156-.01 1.302 0 2.608.028 3.91l.002.002c.084 4.028.334 8.046.69 11.948.034.406.074.814.114 1.216.064.656.13 1.308.2 1.956.094.862.19 1.716.292 2.564 2.118 17.674-2.454 32.536-2.454 32.536"/>
        <path fill="#FF6800" d="M249.681 167.062s2.464 9.762 3.404 22.042c.786 10.274 1.836 17.54 1.836 17.54l1.574 5.086.646-4.906s-.576-13.26-1.346-18.654c-.776-5.438-1.114-12.342-5.462-21.298l-.652.19"/>
        <path fill="#FF6800" d="M249.405 167.07s.296.284.718.348c.42.062 1.022-.61-1.128-3.448l.41 3.1"/>
        <path fill="#F7F7F7" d="M239.403 155.634s6.094 5.738 9.72 7.006l.692 5.496-11.574-11.036 1.162-1.466"/>
        <path fill="#FFA466" d="M243.495 177.852c-2.402-.854-12.386-5.7-9.73-11.356 2.654-5.658 9.5-2.648 14.652-.346 5.39 2.408 18.114 9.806 19.122 9.116 1.006-.688 5.408-6.988 6.204-8.392.796-1.404 5.6-10.376 6.052-11.052.442-.66 7.422 5.2 7.422 5.2s-12.532 22.256-15.904 25.8c-3.372 3.542-27.818-8.97-27.818-8.97"/>
        <path fill="#181929" d="M245.157 264.3c-.494 1.83-1 3.49-1.508 4.844l-.002-.002-3.968-23.67c1.004 2.246 5.478 18.828 5.478 18.828"/>
        <path fill="#8F5C28" d="M251.373 185.504l-11.482-9.378c3.042 1.63 10.518 5.042 11.454 5.468-.01 1.302 0 2.608.028 3.91"/>
        <path fill="#A77860" d="M249.053 155.918c-.032.344-.074.736-.11 1.166-.022.254-.044.524-.07.8-3.804-.254-6.746-3.286-6.926-3.471 1.548 1.229 7.106 1.505 7.106 1.505"/>
        <path fill="url(#prefix__h)" d="M404.193 68.694L398.163 68.694 396.319 64.867 402.347 64.867 404.193 68.694"/>
        <path fill="url(#prefix__i)" d="M396.779 68.694L395.343 68.694 393.497 64.867 394.933 64.867 396.779 68.694"/>
        <path fill="url(#prefix__j)" d="M398.925 64.136L374.515 64.136 373.705 62.223 398.115 62.223 398.925 64.136"/>
        <path fill="url(#prefix__k)" d="M243.419 3.117h-9.218c-.31 0-.562-.252-.562-.563V.564c0-.312.252-.564.562-.564h9.218c.312 0 .564.252.564.563v1.991c0 .311-.252.563-.564.563M243.419 10.593h-9.218c-.31 0-.562-.253-.562-.564V8.04c0-.311.252-.564.562-.564h9.218c.312 0 .564.253.564.564v1.99c0 .311-.252.564-.564.564M243.419 18.068h-9.218c-.31 0-.562-.252-.562-.564v-1.99c0-.311.252-.564.562-.564h9.218c.312 0 .564.253.564.564v1.99c0 .312-.252.564-.564.564"/>
        <path fill="url(#prefix__l)" d="M250.633 3.117h-1.816c-.312 0-.564-.252-.564-.563V.564c0-.312.252-.564.564-.564h1.816c.312 0 .564.252.564.563v1.991c0 .311-.252.563-.564.563M250.633 10.593h-1.816c-.312 0-.564-.253-.564-.564V8.04c0-.311.252-.564.564-.564h1.816c.312 0 .564.253.564.564v1.99c0 .311-.252.564-.564.564M250.633 18.068h-1.816c-.312 0-.564-.252-.564-.564v-1.99c0-.311.252-.564.564-.564h1.816c.312 0 .564.253.564.564v1.99c0 .312-.252.564-.564.564"/>
        <g transform="translate(200.833 172.95)">
            <mask id="prefix__o" fill="#fff">
                <use xlink:href="#prefix__m"/>
            </mask>
            <path fill="url(#prefix__n)" d="M3.344 6.942L14.166 6.942 10.854 0.072 0.032 0.072 3.344 6.942" mask="url(#prefix__o)"/>
        </g>
        <g transform="translate(195.633 172.95)">
            <mask id="prefix__r" fill="#fff">
                <use xlink:href="#prefix__p"/>
            </mask>
            <path fill="url(#prefix__q)" d="M3.482 6.942L6.06 6.942 2.748 0.072 0.17 0.072 3.482 6.942" mask="url(#prefix__r)"/>
        </g>
    </g>
</svg>
